<svg width="26" height="18" viewBox="0 0 26 18" fill="none" xmlns="http://www.w3.org/2000/svg">
<g id="Group">
<path id="Vector" d="M5.34766 17.0235H15.5527C17.9355 17.0235 19.3613 15.6368 19.3613 13.254V4.72852C19.3613 2.35547 17.9355 0.96875 15.5527 0.96875H5.34766C3.07227 0.96875 1.53906 2.35547 1.53906 4.72852V13.254C1.53906 15.6368 2.96485 17.0235 5.34766 17.0235ZM5.6211 15.5489C4.01953 15.5489 3.11133 14.7188 3.11133 13.0293V4.96289C3.11133 3.26367 4.01953 2.43359 5.6211 2.43359H15.2793C16.8711 2.43359 17.789 3.26367 17.789 4.96289V13.0293C17.789 14.7188 16.8711 15.5489 15.2793 15.5489H5.6211ZM19.1367 6.26172V8.11719L23.7851 4.2793C23.873 4.21094 23.9316 4.16211 24.0195 4.16211C24.1367 4.16211 24.1855 4.25977 24.1855 4.39648V13.5957C24.1855 13.7324 24.1367 13.8203 24.0195 13.8203C23.9316 13.8203 23.873 13.7715 23.7851 13.7128L19.1367 9.875V11.7207L23.0527 15.041C23.4433 15.3632 23.873 15.5878 24.2734 15.5878C25.1328 15.5878 25.6992 14.9531 25.6992 14.0449V3.94727C25.6992 3.03906 25.1328 2.4043 24.2734 2.4043C23.873 2.4043 23.4433 2.62891 23.0527 2.95117L19.1367 6.26172Z" fill="#A4A4A4"/>
</g>
</svg>
