<svg width="20" height="20" viewBox="0 0 20 20" fill="none" xmlns="http://www.w3.org/2000/svg">
<g id="Group">
<path id="Vector" d="M14.4687 19.5745C16.1777 19.5745 17.3007 19.1155 18.2871 18.0022C18.3652 17.9241 18.4433 17.8362 18.5117 17.7581C19.0976 17.1038 19.3711 16.4593 19.3711 15.844C19.3711 15.1409 18.9609 14.4866 18.0918 13.8811L15.25 11.9085C14.3808 11.303 13.3457 11.2346 12.5254 12.0452L11.7734 12.7971C11.5488 13.0218 11.3535 13.0315 11.1386 12.8948C10.6113 12.5628 9.54687 11.635 8.82422 10.9124C8.0625 10.1604 7.33008 9.32055 6.93945 8.70532C6.8125 8.48071 6.82226 8.29516 7.04687 8.07055L7.78906 7.3186C8.60937 6.49829 8.54101 5.46313 7.93555 4.59399L5.96289 1.75219C5.35742 0.883056 4.70312 0.482666 4 0.4729C3.38476 0.463135 2.74023 0.746338 2.08594 1.33228C1.99805 1.4104 1.91992 1.47876 1.8418 1.54712C0.728515 2.54321 0.269531 3.66626 0.269531 5.35571C0.269531 8.14868 1.98828 11.5471 5.14258 14.7014C8.27734 17.8362 11.6855 19.5745 14.4687 19.5745ZM14.4785 18.0706C11.9883 18.1194 8.79492 16.2053 6.26562 13.6858C3.7168 11.1468 1.71484 7.84595 1.76367 5.35571C1.7832 4.28149 2.16406 3.35376 2.92578 2.68969C2.99414 2.6311 3.04297 2.58227 3.11133 2.53345C3.4043 2.27954 3.7168 2.14282 4 2.14282C4.2832 2.14282 4.53711 2.25024 4.72265 2.54321L6.61719 5.38501C6.82226 5.68774 6.8418 6.02954 6.53906 6.33227L5.67969 7.19165C5.00586 7.86548 5.05469 8.68579 5.54297 9.34009C6.09961 10.092 7.06641 11.1858 7.81836 11.928C8.56055 12.68 9.74219 13.7346 10.5039 14.3011C11.1582 14.7893 11.9785 14.8382 12.6523 14.1643L13.5117 13.305C13.8144 13.0022 14.1465 13.0218 14.459 13.2171L17.3007 15.1116C17.584 15.3069 17.7011 15.5511 17.7011 15.844C17.7011 16.1272 17.5644 16.4397 17.3105 16.7327C17.2519 16.8011 17.2129 16.8499 17.1543 16.9182C16.4902 17.68 15.5625 18.0511 14.4785 18.0706Z" fill="#A4A4A4"/>
</g>
</svg>
