<svg width="14" height="12" viewBox="0 0 14 12" fill="none" xmlns="http://www.w3.org/2000/svg">
<g id="Group">
<path id="Vector" d="M12.6349 10.6402C12.6349 10.8546 12.4595 11.0319 12.2452 11.0319H2.87158L3.66041 10.2461H12.2452C12.4595 10.2461 12.6349 10.4259 12.6349 10.6402Z" fill="#303030"/>
<path id="Vector_2" d="M2.44085 10.4253L9.6342 3.24665L8.68427 2.29278L1.4953 9.47147L0.87018 10.8004C0.816986 10.9272 0.954032 11.0734 1.07883 11.0159L2.44085 10.4253ZM10.1352 2.74994L10.7075 2.1904C11.008 1.89618 11.0212 1.59035 10.7524 1.32788L10.6059 1.177C10.3473 0.920868 10.0356 0.946259 9.75169 1.23019L9.179 1.79608L10.1352 2.74994Z" fill="#303030"/>
</g>
</svg>
