<svg width="18" height="16" viewBox="0 0 18 16" fill="none" xmlns="http://www.w3.org/2000/svg">
<g id="Group">
<path id="Subtract" fill-rule="evenodd" clip-rule="evenodd" d="M11.9649 0.710417C10.9886 0.279205 9.91351 0.0390625 8.78906 0.0390625C4.4375 0.0390625 0.828125 3.64844 0.828125 8.00781C0.828125 12.3594 4.44531 15.9766 8.79688 15.9766C13.1562 15.9766 16.7656 12.3594 16.7656 8.00781C16.7656 6.9374 16.5475 5.91221 16.1539 4.97457C15.8167 5.25303 15.4175 5.4592 14.9802 5.56935C15.2755 6.32308 15.4375 7.14536 15.4375 8.00781C15.4375 11.6953 12.4843 14.6485 8.79688 14.6485C5.10938 14.6485 2.16407 11.6953 2.16407 8.00781C2.16407 4.32031 5.10156 1.36718 8.78906 1.36718C9.69788 1.36718 10.5626 1.54656 11.3497 1.87211C11.4676 1.43782 11.6806 1.04267 11.9649 0.710417Z" fill="#A4A4A4"/>
<path id="Vector" d="M8.78907 11.9219C10.4219 11.9219 11.5156 10.836 11.5156 10.3203C11.5156 10.1329 11.3359 10.0469 11.1719 10.125C10.6016 10.4375 9.92188 10.7891 8.78907 10.7891C7.65625 10.7891 6.97657 10.4297 6.41407 10.125C6.24219 10.0469 6.06251 10.1329 6.06251 10.3203C6.06251 10.836 7.15625 11.9219 8.78907 11.9219ZM6.47657 7.3125C6.96875 7.3125 7.40625 6.86718 7.40625 6.24218C7.40625 5.60937 6.97657 5.16406 6.47657 5.16406C5.98438 5.16406 5.55469 5.60937 5.55469 6.24218C5.55469 6.86718 5.98438 7.3125 6.47657 7.3125ZM11.1093 7.3125C11.6015 7.3125 12.039 6.86718 12.039 6.24218C12.039 5.60937 11.6093 5.16406 11.1093 5.16406C10.6172 5.16406 10.1875 5.60937 10.1875 6.24218C10.1875 6.86718 10.6172 7.3125 11.1093 7.3125Z" fill="#A4A4A4"/>
<path id="Union" fill-rule="evenodd" clip-rule="evenodd" d="M13.8688 4.41172C13.8688 4.74309 14.1374 5.01172 14.4688 5.01172C14.8001 5.01172 15.0688 4.74309 15.0688 4.41172V3.11171H16.3687C16.7001 3.11171 16.9688 2.84308 16.9688 2.51171C16.9688 2.18034 16.7001 1.91171 16.3687 1.91171H15.0688V0.611719C15.0688 0.280348 14.8001 0.0117188 14.4688 0.0117188C14.1374 0.0117188 13.8688 0.280348 13.8688 0.611719V1.91171H12.5688C12.2374 1.91171 11.9688 2.18034 11.9688 2.51171C11.9688 2.84308 12.2374 3.11171 12.5688 3.11171H13.8688V4.41172Z" fill="#A4A4A4"/>
</g>
</svg>
