<svg width="16" height="16" viewBox="0 0 16 16" fill="none" xmlns="http://www.w3.org/2000/svg">
<g id="Group 1">
<path id="Subtract" fill-rule="evenodd" clip-rule="evenodd" d="M14.0729 5.77374C14.3263 6.46728 14.4645 7.21697 14.4645 7.99993C14.4645 11.5807 11.5795 14.4635 7.99871 14.4635C4.41792 14.4635 1.5403 11.5807 1.5403 7.99993C1.5403 4.41914 4.41281 1.53412 7.9936 1.53412C8.81588 1.53412 9.60174 1.68626 10.3245 1.96402L10.4768 1.00915C9.69856 0.72922 8.86225 0.576416 7.9936 0.576416C3.93052 0.576416 0.575195 3.93175 0.575195 7.99993C0.575195 12.063 3.93563 15.4235 7.99871 15.4235C12.0692 15.4235 15.4245 12.063 15.4245 7.99993C15.4245 7.11063 15.2639 6.25539 14.9704 5.46182L14.0729 5.77374Z" fill="#303030"/>
<path id="Vector" d="M7.9936 11.6463C9.48777 11.6463 10.5057 10.6289 10.5057 10.1657C10.5057 10.0179 10.3652 9.96167 10.2465 10.0265C9.7475 10.3639 9.05537 10.7015 7.9936 10.7015C6.93412 10.7015 6.24429 10.3565 5.74808 10.0265C5.62424 9.96167 5.48384 10.0179 5.48384 10.1657C5.48384 10.6289 6.50172 11.6463 7.9936 11.6463ZM5.78664 7.31373C6.22083 7.31373 6.61008 6.9033 6.61008 6.35247C6.61008 5.79652 6.22822 5.38611 5.78664 5.38611C5.35016 5.38611 4.9729 5.79652 4.9729 6.35247C4.9729 6.9033 5.35476 7.31373 5.78664 7.31373ZM10.208 7.31373C10.6399 7.31373 11.0268 6.9033 11.0268 6.35247C11.0268 5.79652 10.6472 5.38611 10.208 5.38611C9.77148 5.38611 9.38963 5.79652 9.38963 6.35247C9.38963 6.9033 9.77378 7.31373 10.208 7.31373Z" fill="#303030"/>
<path id="Vector_2" d="M13.0937 5.24029C13.3355 5.24029 13.4879 5.0833 13.4879 4.84615V3.30645H15.0252C15.2601 3.30645 15.4245 3.15405 15.4245 2.90721C15.4245 2.66546 15.2601 2.51306 15.0252 2.51306H13.4879V0.97566C13.4879 0.743103 13.3355 0.576416 13.0937 0.576416C12.8519 0.576416 12.6995 0.743103 12.6995 0.97566V2.51306H11.1548C10.9274 2.51306 10.7583 2.66546 10.7583 2.90721C10.7583 3.15405 10.9274 3.30645 11.1548 3.30645H12.6995V4.84615C12.6995 5.0833 12.8519 5.24029 13.0937 5.24029Z" fill="#303030"/>
</g>
</svg>
