<svg width="16" height="14" viewBox="0 0 16 14" fill="none" xmlns="http://www.w3.org/2000/svg">
<g id="Group">
<path id="Vector" d="M4.49757 13.8146C4.73973 13.8146 4.91226 13.683 5.19911 13.4327L7.42841 11.4761H11.9385C13.6609 11.4761 14.6352 10.476 14.6352 8.78149V3.67715C14.6352 1.98061 13.6609 0.980469 11.9385 0.980469H3.55215C1.8278 0.980469 0.855469 1.97033 0.855469 3.67715V8.78149C0.855469 10.4863 1.8278 11.4761 3.55215 11.4761H3.95916V13.1875C3.95916 13.5681 4.15752 13.8146 4.49757 13.8146ZM4.69288 12.9265V11.0601C4.69288 10.7961 4.58713 10.6923 4.32307 10.6923H3.55608C2.30337 10.6923 1.64131 9.99522 1.64131 8.7712V3.68108C1.64131 2.45707 2.30337 1.76631 3.55608 1.76631H11.9326C13.1711 1.76631 13.8493 2.45707 13.8493 3.68108V8.7712C13.8493 9.99522 13.1711 10.6923 11.9326 10.6923H7.42771C7.13914 10.6923 6.99289 10.7352 6.78514 10.9434L4.69288 12.9265Z" fill="#303030"/>
</g>
</svg>
