<svg width="22" height="20" viewBox="0 0 22 20" fill="none" xmlns="http://www.w3.org/2000/svg">
<g id="Group">
<path id="Vector" d="M10.8203 19.9571C16.2696 19.9571 20.7813 15.4356 20.7813 9.9961C20.7813 4.54688 16.2598 0.0351562 10.8105 0.0351562C5.3711 0.0351562 0.859375 4.54688 0.859375 9.9961C0.859375 15.4356 5.38086 19.9571 10.8203 19.9571ZM10.8203 18.2969C6.21094 18.2969 2.52929 14.6055 2.52929 9.9961C2.52929 5.38672 6.20117 1.69532 10.8105 1.69532C15.4199 1.69532 19.1211 5.38672 19.1211 9.9961C19.1211 14.6055 15.4297 18.2969 10.8203 18.2969Z" fill="#A4A4A4"/>
<path id="Vector_2" d="M10.8086 14.8887C12.8496 14.8887 14.2168 13.5313 14.2168 12.8868C14.2168 12.6524 13.9922 12.545 13.7871 12.6426C13.0742 13.0332 12.2246 13.4727 10.8086 13.4727C9.39259 13.4727 8.54298 13.0235 7.83985 12.6426C7.62501 12.545 7.4004 12.6524 7.4004 12.8868C7.4004 13.5313 8.76759 14.8887 10.8086 14.8887ZM7.91798 9.12696C8.53321 9.12696 9.08009 8.57032 9.08009 7.78907C9.08009 6.99805 8.54298 6.44141 7.91798 6.44141C7.30274 6.44141 6.76562 6.99805 6.76562 7.78907C6.76562 8.57032 7.30274 9.12696 7.91798 9.12696ZM13.709 9.12696C14.3242 9.12696 14.8711 8.57032 14.8711 7.78907C14.8711 6.99805 14.334 6.44141 13.709 6.44141C13.0937 6.44141 12.5566 6.99805 12.5566 7.78907C12.5566 8.57032 13.0937 9.12696 13.709 9.12696Z" fill="#A4A4A4"/>
</g>
</svg>
