<svg width="16" height="16" viewBox="0 0 16 16" fill="none" xmlns="http://www.w3.org/2000/svg">
<g id="Group">
<path id="Vector" d="M7.77929 15.4687C11.8662 15.4687 15.25 12.0776 15.25 7.99804C15.25 3.91113 11.8589 0.527344 7.77197 0.527344C3.69238 0.527344 0.308594 3.91113 0.308594 7.99804C0.308594 12.0776 3.6997 15.4687 7.77929 15.4687ZM7.77929 14.2236C4.32226 14.2236 1.56103 11.455 1.56103 7.99804C1.56103 4.54101 4.31494 1.77246 7.77197 1.77246C11.229 1.77246 14.0049 4.54101 14.0049 7.99804C14.0049 11.455 11.2363 14.2236 7.77929 14.2236Z" fill="#A4A4A4"/>
<path id="Vector_2" d="M4.38281 7.99951C4.38281 8.3584 4.63183 8.6001 5.00536 8.6001H7.15868V10.7607C7.15868 11.1269 7.40771 11.3833 7.76659 11.3833C8.13281 11.3833 8.38915 11.1343 8.38915 10.7607V8.6001H10.5498C10.916 8.6001 11.1723 8.3584 11.1723 7.99951C11.1723 7.6333 10.916 7.37695 10.5498 7.37695H8.38915V5.22363C8.38915 4.8501 8.13281 4.59375 7.76659 4.59375C7.40771 4.59375 7.15868 4.8501 7.15868 5.22363V7.37695H5.00536C4.63183 7.37695 4.38281 7.6333 4.38281 7.99951Z" fill="#A4A4A4"/>
</g>
</svg>
