<svg width="20" height="16" viewBox="0 0 20 16" fill="none" xmlns="http://www.w3.org/2000/svg">
<g id="arrow.left 1" clip-path="url(#clip0_334_4128)">
<g id="Group">
<path id="Vector" d="M0.751953 7.99512C0.751953 8.18174 0.832129 8.34581 0.975977 8.48594L7.54814 15.0696C7.69502 15.2097 7.84863 15.2764 8.02851 15.2764C8.39502 15.2764 8.679 15.0035 8.679 14.6394C8.679 14.4595 8.61533 14.2796 8.49844 14.1695L5.57227 11.2194L2.23789 8.12081L2.07822 8.51153L4.95938 8.64932H18.2393C18.6169 8.64932 18.8868 8.37579 18.8868 7.99512C18.8868 7.61143 18.6169 7.34092 18.2393 7.34092H4.95938L2.07822 7.47871L2.23789 7.87618L5.57227 4.7709L8.49844 1.82081C8.61836 1.69785 8.679 1.53076 8.679 1.35088C8.679 0.983692 8.39502 0.713867 8.02851 0.713867C7.84863 0.713867 7.68593 0.773828 7.49834 0.967481L0.975977 7.5043C0.832129 7.64141 0.751953 7.8085 0.751953 7.99512Z" fill="#303030"/>
</g>
</g>
<defs>
<clipPath id="clip0_334_4128">
<rect width="18.4961" height="14.5723" fill="white" transform="translate(0.751953 0.713867)"/>
</clipPath>
</defs>
</svg>
