<svg width="30" height="24" viewBox="0 0 30 24" fill="none" xmlns="http://www.w3.org/2000/svg">
<g id="Group">
<path id="Vector" d="M4.28669 22.5858H25.2854C27.6747 22.5858 28.8924 21.3912 28.8924 19.0248V6.99767C28.8924 4.63131 27.6747 3.44812 25.2854 3.44812H22C21.0925 3.44812 20.8168 3.26432 20.2999 2.68995L19.3809 1.6561C18.8066 1.02431 18.2207 0.679688 17.0375 0.679688H12.4542C11.2709 0.679688 10.6851 1.02431 10.1107 1.6561L9.19174 2.68995C8.67482 3.25283 8.38762 3.44812 7.49163 3.44812H4.28669C1.88585 3.44812 0.679688 4.63131 0.679688 6.99767V19.0248C0.679688 21.3912 1.88585 22.5858 4.28669 22.5858ZM4.30966 20.7364C3.18391 20.7364 2.52914 20.1276 2.52914 18.9329V7.10105C2.52914 5.90638 3.18391 5.29756 4.30966 5.29756H7.95111C8.98497 5.29756 9.54784 5.10228 10.1222 4.45899L11.0182 3.44812C11.673 2.71293 12.0176 2.52914 13.0284 2.52914H16.4632C17.474 2.52914 17.8186 2.71293 18.4735 3.44812L19.3695 4.45899C19.9439 5.10228 20.5067 5.29756 21.5406 5.29756H25.2509C26.3882 5.29756 27.0429 5.90638 27.0429 7.10105V18.9329C27.0429 20.1276 26.3882 20.7364 25.2509 20.7364H4.30966ZM14.786 19.0822C18.2552 19.0822 21.0466 16.3023 21.0466 12.7987C21.0466 9.3066 18.2667 6.52669 14.786 6.52669C11.3054 6.52669 8.51399 9.3066 8.51399 12.7987C8.51399 16.3023 11.3054 19.0822 14.786 19.0822ZM14.786 17.3362C12.2933 17.3362 10.2486 15.326 10.2486 12.7987C10.2486 10.283 12.2818 8.26127 14.786 8.26127C17.2903 8.26127 19.3119 10.283 19.3119 12.7987C19.3119 15.326 17.2903 17.3362 14.786 17.3362ZM21.5175 8.57142C21.5175 9.37554 22.1838 10.0073 22.9649 10.0073C23.7346 10.0073 24.3893 9.36404 24.3893 8.57142C24.3893 7.81326 23.7346 7.14701 22.9649 7.14701C22.1838 7.14701 21.5175 7.81326 21.5175 8.57142Z" fill="#505050"/>
</g>
</svg>
