<svg width="18" height="16" viewBox="0 0 18 16" fill="none" xmlns="http://www.w3.org/2000/svg">
<g id="&#231;&#164;&#190;&#229;&#140;&#186;" clip-path="url(#clip0_145_408)">
<g id="Group">
<path id="Vector" d="M13.3048 3.17074H9.29153C7.17253 3.17074 5.95669 4.5254 5.95669 6.7603V10.1376C5.95669 10.8526 6.08119 11.4775 6.32118 11.9956L4.97247 13.2901C4.62509 13.621 4.42824 13.7833 4.13876 13.7833C3.73927 13.7833 3.50769 13.4774 3.50769 12.9967V11.3674H3.22978C1.51026 11.3674 0.578125 10.3436 0.578125 8.51447V3.72634C0.578125 1.89723 1.51026 0.867188 3.22978 0.867188H10.6868C12.2282 0.867188 13.1318 1.68927 13.3048 3.17074Z" fill="white"/>
<path id="Vector_2" d="M9.29165 12.8716H11.1617L13.0954 14.6571C13.4486 14.9817 13.6397 15.1503 13.9234 15.1503C14.3229 15.1503 14.5487 14.8444 14.5487 14.3699V12.8716H14.6644C16.3319 12.8716 17.2061 11.904 17.2061 10.1374V6.76009C17.2061 4.98715 16.3319 4.01953 14.6644 4.01953H9.29165C7.62423 4.01953 6.75 4.98715 6.75 6.76009V10.1374C6.75 11.9103 7.62423 12.8716 9.29165 12.8716Z" fill="white"/>
</g>
</g>
<defs>
<clipPath id="clip0_145_408">
<rect width="18" height="16" fill="white"/>
</clipPath>
</defs>
</svg>
