<svg width="14" height="17" viewBox="0 0 14 17" fill="none" xmlns="http://www.w3.org/2000/svg">
<g id="Group">
<path id="Vector" d="M9.15517 1.12619L12.6342 4.63835C13.0356 5.04841 13.1666 5.4471 13.1666 6.0547V11.4411C13.1666 12.6768 12.5361 13.3144 11.3111 13.3144H10.09V12.5285H11.2677C12.0006 12.5285 12.3808 12.1396 12.3808 11.4242V5.82568H9.16418C8.5011 5.82568 8.17712 5.52378 8.17712 4.83862V1.37959H5.29668C4.56175 1.37959 4.18597 1.78273 4.18597 2.48396V3.67071H3.4021V2.46688C3.4021 1.23118 4.0347 0.59375 5.25771 0.59375H7.80496C8.34445 0.59375 8.76942 0.731685 9.15517 1.12619ZM8.89485 4.74137C8.89485 5.00093 8.99749 5.10795 9.25705 5.10795H12.1477L8.89485 1.82399V4.74137Z" fill="#303030"/>
<path id="Vector_2" d="M0.325439 14.5193C0.325439 15.7594 0.949731 16.3924 2.18105 16.3924H8.23443C9.46575 16.3924 10.09 15.755 10.09 14.5193V9.37291C10.09 8.69028 9.99876 8.38596 9.57556 7.954L5.84974 4.18635C5.4421 3.76994 5.1091 3.67188 4.49458 3.67188H2.18105C0.960014 3.67188 0.325439 4.30493 0.325439 5.545V14.5193ZM1.11128 14.5022V5.5577C1.11128 4.86085 1.48706 4.45772 2.22003 4.45772H4.53622V8.27514C4.53622 9.00214 4.90312 9.34891 5.60364 9.34891H9.3042V14.5022C9.3042 15.2177 8.92404 15.6066 8.19545 15.6066H2.21565C1.48706 15.6066 1.11128 15.2177 1.11128 14.5022ZM5.68883 8.6049C5.39557 8.6049 5.27826 8.4876 5.27826 8.19433V4.69652L9.14481 8.6049H5.68883Z" fill="#303030"/>
</g>
</svg>
