<svg width="16" height="16" viewBox="0 0 16 16" fill="none" xmlns="http://www.w3.org/2000/svg">
<g id="Group">
<path id="Vector" d="M7.77929 15.4687C11.8662 15.4687 15.25 12.0776 15.25 7.99804C15.25 3.91113 11.8589 0.527344 7.77197 0.527344C3.69238 0.527344 0.308594 3.91113 0.308594 7.99804C0.308594 12.0776 3.6997 15.4687 7.77929 15.4687ZM7.77929 14.2236C4.32226 14.2236 1.56103 11.455 1.56103 7.99804C1.56103 4.54101 4.31494 1.77246 7.77197 1.77246C11.229 1.77246 14.0049 4.54101 14.0049 7.99804C14.0049 11.455 11.2363 14.2236 7.77929 14.2236Z" fill="#A4A4A4"/>
<path id="Vector_2" d="M4.89893 8.62109H10.6484C11.0586 8.62109 11.3369 8.40138 11.3369 8.01319C11.3369 7.61768 11.0732 7.39062 10.6484 7.39062H4.89893C4.47412 7.39062 4.20312 7.61768 4.20312 8.01319C4.20312 8.40138 4.48877 8.62109 4.89893 8.62109Z" fill="#A4A4A4"/>
</g>
</svg>
