<svg width="14" height="14" viewBox="0 0 14 14" fill="none" xmlns="http://www.w3.org/2000/svg">
<path id="Vector" d="M6.55596 0.805659C6.67852 0.696827 6.83673 0.636719 7.00064 0.636719C7.16454 0.636719 7.32275 0.696827 7.44531 0.805659L13.4725 6.16317C13.5985 6.28286 13.673 6.44683 13.6804 6.62045C13.6877 6.79407 13.6273 6.96374 13.5118 7.09362C13.3964 7.2235 13.2349 7.30342 13.0617 7.3165C12.8884 7.32957 12.7168 7.27477 12.5832 7.16368L12.3581 6.96479V12.0209C12.3581 12.3762 12.217 12.7168 11.9659 12.968C11.7147 13.2192 11.374 13.3603 11.0188 13.3603H2.98251C2.62728 13.3603 2.2866 13.2192 2.03542 12.968C1.78424 12.7168 1.64313 12.3762 1.64313 12.0209V6.96479L1.41811 7.16368C1.28448 7.27477 1.1129 7.32957 0.939619 7.3165C0.766336 7.30342 0.60492 7.2235 0.48947 7.09362C0.37402 6.96374 0.313577 6.79407 0.320909 6.62045C0.328242 6.44683 0.402776 6.28286 0.528766 6.16317L6.55596 0.805659ZM2.98251 5.77274V12.0209H4.99157V8.67249C4.99157 8.49488 5.06213 8.32454 5.18772 8.19895C5.31331 8.07336 5.48365 8.00281 5.66126 8.00281H8.34002C8.51763 8.00281 8.68797 8.07336 8.81356 8.19895C8.93915 8.32454 9.0097 8.49488 9.0097 8.67249V12.0209H11.0188V5.77341L7.00064 2.20196L2.98251 5.77274ZM7.67033 12.0209V9.34218H6.33095V12.0209H7.67033Z" fill="#303030"/>
</svg>
