<svg width="16" height="4" viewBox="0 0 16 4" fill="none" xmlns="http://www.w3.org/2000/svg">
<g id="Group">
<path id="Vector" d="M13.6016 3.47266C14.4219 3.47266 15.0859 2.81641 15.0859 1.9961C15.0859 1.17578 14.4219 0.511719 13.6016 0.511719C12.7812 0.511719 12.1172 1.17578 12.1172 1.9961C12.1172 2.81641 12.7812 3.47266 13.6016 3.47266Z" fill="#A4A4A4"/>
<path id="Vector_2" d="M7.79687 3.47266C8.61719 3.47266 9.27343 2.81641 9.27343 1.9961C9.27343 1.17578 8.61719 0.511719 7.79687 0.511719C6.97656 0.511719 6.3125 1.17578 6.3125 1.9961C6.3125 2.81641 6.97656 3.47266 7.79687 3.47266Z" fill="#A4A4A4"/>
<path id="Vector_3" d="M1.99219 3.47266C2.8125 3.47266 3.46875 2.81641 3.46875 1.9961C3.46875 1.17578 2.8125 0.511719 1.99219 0.511719C1.17187 0.511719 0.507812 1.17578 0.507812 1.9961C0.507812 2.81641 1.17187 3.47266 1.99219 3.47266Z" fill="#A4A4A4"/>
</g>
</svg>
