<svg width="16" height="18" viewBox="0 0 16 18" fill="none" xmlns="http://www.w3.org/2000/svg">
<g id="Group">
<path id="Vector" d="M0.425781 13.293C0.425781 13.8633 0.863281 14.2383 1.60547 14.2383H4.90234C4.96484 15.7461 6.14453 17.0664 7.79297 17.0664C9.44922 17.0664 10.6289 15.7539 10.6914 14.2383H13.9883C14.7227 14.2383 15.168 13.8633 15.168 13.293C15.168 12.5117 14.3711 11.8086 13.6992 11.1133C13.1836 10.5742 13.043 9.46484 12.9805 8.5664C12.9258 5.48828 12.1289 3.5039 10.0508 2.7539C9.78516 1.73047 8.94922 0.925781 7.79297 0.925781C6.64453 0.925781 5.80078 1.73047 5.54297 2.7539C3.46484 3.5039 2.66797 5.48828 2.61328 8.5664C2.55078 9.46484 2.41016 10.5742 1.89453 11.1133C1.21484 11.8086 0.425781 12.5117 0.425781 13.293ZM1.9414 13.0586V12.9649C2.08203 12.7383 2.55078 12.2774 2.95703 11.8242C3.51953 11.1992 3.78516 10.1914 3.85547 8.66797C3.91797 5.2539 4.93359 4.16797 6.26953 3.80078C6.46484 3.7539 6.57422 3.66016 6.58203 3.45703C6.60547 2.64453 7.07422 2.07422 7.79297 2.07422C8.51953 2.07422 8.98047 2.64453 9.01172 3.45703C9.01953 3.66016 9.12109 3.7539 9.3164 3.80078C10.6602 4.16797 11.6758 5.2539 11.7383 8.66797C11.8086 10.1914 12.0742 11.1992 12.6289 11.8242C13.043 12.2774 13.5039 12.7383 13.6446 12.9649V13.0586H1.9414ZM6.12109 14.2383H9.47266C9.41016 15.3008 8.73828 15.9649 7.79297 15.9649C6.85547 15.9649 6.17578 15.3008 6.12109 14.2383Z" fill="#A4A4A4"/>
</g>
</svg>
