<svg width="12" height="12" viewBox="0 0 12 12" fill="none" xmlns="http://www.w3.org/2000/svg">
<g id="icon_&#229;&#138;&#160;&#229;&#143;&#183;" clip-path="url(#clip0_145_423)">
<g id="Group">
<path id="Vector" d="M0 5.99638C0 6.35253 0.291642 6.64327 0.633077 6.64327H5.23533V11.3459C5.23533 11.6948 5.51986 11.9928 5.86841 11.9928C6.21696 11.9928 6.5086 11.6948 6.5086 11.3459V6.64327H11.1037C11.4452 6.64327 11.7368 6.35253 11.7368 5.99638C11.7368 5.64023 11.4452 5.34223 11.1037 5.34223H6.5086V0.646883C6.5086 0.298002 6.21696 0 5.86841 0C5.51986 0 5.23533 0.298002 5.23533 0.646883V5.34223H0.633077C0.291642 5.34223 0 5.64023 0 5.99638Z" fill="#E7E7E7"/>
</g>
</g>
<defs>
<clipPath id="clip0_145_423">
<rect width="12" height="12" fill="white"/>
</clipPath>
</defs>
</svg>
