<svg width="14" height="14" viewBox="0 0 14 14" fill="none" xmlns="http://www.w3.org/2000/svg">
<g id="Group">
<path id="Vector" d="M6.10515 13.6791H7.38738C7.83286 13.6791 8.16014 13.4162 8.26653 12.974L8.54932 11.7535L8.85083 11.6443L9.91698 12.3047C10.2981 12.5492 10.7171 12.4956 11.0367 12.1759L11.9293 11.2897C12.2509 10.9701 12.3026 10.5467 12.06 10.166L11.3889 9.10623L11.5045 8.81151L12.7249 8.52434C13.1627 8.41795 13.43 8.08826 13.43 7.64519V6.38048C13.43 5.93742 13.1671 5.60575 12.7249 5.50133L11.5113 5.20978L11.3933 4.9063L12.0644 3.8465C12.3069 3.46583 12.2553 3.04682 11.9337 2.7248L11.0411 1.8322C10.7259 1.51697 10.3069 1.4653 9.92574 1.70346L8.85959 2.36578L8.54932 2.24784L8.26653 1.02541C8.16014 0.583232 7.83286 0.320312 7.38738 0.320312H6.10515C5.65967 0.320312 5.33239 0.583232 5.226 1.02541L4.9408 2.24784L4.62659 2.36578L3.56482 1.70346C3.18371 1.4653 2.76032 1.51697 2.44509 1.8322L1.55687 2.7248C1.23529 3.04682 1.17924 3.46583 1.42617 3.8465L2.09089 4.9063L1.97733 5.20978L0.767598 5.50133C0.32542 5.60575 0.0625 5.93742 0.0625 6.38048V7.64519C0.0625 8.08826 0.3298 8.41795 0.767598 8.52434L1.98609 8.81151L2.09527 9.10623L1.43055 10.166C1.18362 10.5467 1.23967 10.9701 1.56125 11.2897L2.44947 12.1759C2.76711 12.4956 3.1905 12.5492 3.57358 12.3047L4.63535 11.6443L4.9408 11.7535L5.226 12.974C5.33239 13.4162 5.65967 13.6791 6.10515 13.6791ZM6.189 12.9151C6.0378 12.9151 5.95313 12.8451 5.92424 12.7042L5.5611 11.1575C5.21324 11.0682 4.87898 10.9316 4.61783 10.7858L3.26946 11.6226C3.15394 11.7034 3.036 11.6867 2.92834 11.5791L2.15177 10.8045C2.04849 10.6992 2.03821 10.5916 2.11654 10.4633L2.95335 9.12178C2.82703 8.86895 2.6797 8.53272 2.58404 8.18683L1.03934 7.8261C0.896457 7.79721 0.826442 7.71254 0.826442 7.56134V6.45995C0.826442 6.30437 0.892077 6.22408 1.03934 6.19519L2.57966 5.83008C2.67532 5.46667 2.8382 5.12365 2.94459 4.89272L2.11216 3.54917C2.02945 3.41657 2.03973 3.30891 2.14301 3.20126L2.92396 2.43345C3.03162 2.32579 3.1408 2.30916 3.26946 2.39187L4.60907 3.21554C4.87022 3.08091 5.222 2.94189 5.56351 2.84185L5.92424 1.29715C5.95313 1.15427 6.0378 1.08425 6.189 1.08425H7.30353C7.45669 1.08425 7.5394 1.15033 7.56391 1.29715L7.9334 2.85061C8.28957 2.94627 8.60676 3.08529 8.87076 3.21992L10.2167 2.39187C10.3498 2.30916 10.4546 2.32579 10.5666 2.43345L11.3412 3.20126C11.4508 3.30891 11.4548 3.41657 11.374 3.54917L10.5416 4.89272C10.6563 5.12365 10.8128 5.46471 10.9085 5.83008L12.4552 6.19519C12.5961 6.22408 12.6661 6.30437 12.6661 6.45995V7.56134C12.6661 7.71254 12.5917 7.79721 12.4552 7.8261L10.9041 8.18683C10.8104 8.53469 10.6694 8.86895 10.5328 9.12178L11.3696 10.4633C11.448 10.5916 11.4421 10.6992 11.3344 10.8045L10.5622 11.5791C10.4502 11.6867 10.3366 11.7034 10.2167 11.6226L8.86638 10.7858C8.60918 10.9316 8.28519 11.0682 7.9334 11.1575L7.56391 12.7042C7.5394 12.851 7.45669 12.9151 7.30353 12.9151H6.189ZM6.74823 9.42647C8.07686 9.42647 9.17259 8.33074 9.17259 6.99773C9.17259 5.67742 8.07686 4.58168 6.74823 4.58168C5.42157 4.58168 4.31949 5.67742 4.31949 6.99773C4.31949 8.32832 5.41523 9.42647 6.74823 9.42647ZM6.74823 8.66691C5.83912 8.66691 5.08344 7.91122 5.08344 6.99773C5.08344 6.09693 5.84109 5.34125 6.74823 5.34125C7.64858 5.34125 8.40427 6.09693 8.40427 6.99773C8.40427 7.90881 7.64858 8.66691 6.74823 8.66691Z" fill="#303030"/>
</g>
</svg>
