<svg width="14" height="13" viewBox="0 0 14 13" fill="none" xmlns="http://www.w3.org/2000/svg">
<g id="Group">
<path id="Vector" d="M12.6926 8.94063C12.6926 6.61618 11.0958 5.02698 8.41965 5.02698H3.53025L1.75138 5.09223L1.83612 5.29765L3.34102 3.94845L5.35063 1.96951C5.42223 1.89353 5.46558 1.79653 5.46558 1.67282C5.46558 1.42735 5.29654 1.25 5.03642 1.25C4.93263 1.25 4.81285 1.30211 4.73052 1.38444L0.943008 5.13756C0.847539 5.22865 0.799805 5.33529 0.799805 5.45659C0.799805 5.57352 0.847539 5.68212 0.943008 5.77321L4.73052 9.52633C4.81285 9.61304 4.93263 9.6588 5.03642 9.6588C5.29654 9.6588 5.46558 9.48342 5.46558 9.23795C5.46558 9.11227 5.42223 9.01724 5.35063 8.94126L3.34102 6.96473L1.83612 5.61116L1.75138 5.81854L3.53025 5.88182H8.47551C10.6125 5.88182 11.8377 7.1106 11.8377 8.8988C11.8377 10.6914 10.6125 11.9708 8.47551 11.9708H6.73416C6.47359 11.9708 6.30214 12.1597 6.30214 12.396C6.30214 12.6303 6.47556 12.8212 6.73613 12.8212H8.4858C11.1245 12.8212 12.6926 11.2695 12.6926 8.94063Z" fill="#303030"/>
</g>
</svg>
