<svg width="12" height="6" viewBox="0 0 12 6" fill="none" xmlns="http://www.w3.org/2000/svg">
<g id="icon_&#229;&#144;&#145;&#228;&#184;&#139;_&#231;&#186;&#191;&#230;&#128;&#167;" clip-path="url(#clip0_145_9615)">
<g id="Group">
<path id="Vector" d="M5.73137 5.99848C5.93209 5.99749 6.1137 5.92595 6.26294 5.78044L10.7581 1.50718C10.8872 1.38743 10.9568 1.23929 10.9568 1.06586C10.9568 0.708019 10.6575 0.425781 10.2751 0.425781C10.0882 0.425781 9.9141 0.495355 9.7808 0.617518L5.44231 4.74627H6.01983L1.67709 0.617518C1.54757 0.497327 1.37458 0.425781 1.18177 0.425781C0.798258 0.425781 0.5 0.708019 0.5 1.06586C0.5 1.23831 0.570727 1.38644 0.697658 1.51167L5.19495 5.78044C5.35388 5.92792 5.52686 5.99848 5.73137 5.99848Z" fill="#151515"/>
</g>
</g>
<defs>
<clipPath id="clip0_145_9615">
<rect width="11" height="6" fill="white" transform="translate(0.5)"/>
</clipPath>
</defs>
</svg>
