<svg width="20" height="20" viewBox="0 0 20 20" fill="none" xmlns="http://www.w3.org/2000/svg">
<g id="icon_&#231;&#166;&#187;&#229;&#188;&#128;">
<path id="&#244;&#128;&#187;&#181;" d="M3.35547 18.375C2.54818 18.375 1.94141 18.1719 1.53516 17.7656C1.13411 17.3594 0.933594 16.7474 0.933594 15.9297V4.07812C0.933594 3.26562 1.13411 2.65365 1.53516 2.24219C1.94141 1.83073 2.54818 1.625 3.35547 1.625H11.6523C12.4596 1.625 13.0638 1.83073 13.4648 2.24219C13.8711 2.65365 14.0742 3.26562 14.0742 4.07812V7.86719H12.8164V4.10156C12.8164 3.71094 12.7122 3.41146 12.5039 3.20312C12.3008 2.98958 11.9961 2.88281 11.5898 2.88281H3.41797C3.01172 2.88281 2.70443 2.98958 2.49609 3.20312C2.29297 3.41146 2.19141 3.71094 2.19141 4.10156V15.9062C2.19141 16.2969 2.29297 16.5964 2.49609 16.8047C2.70443 17.013 3.01172 17.1172 3.41797 17.1172H11.5898C11.9961 17.1172 12.3008 17.013 12.5039 16.8047C12.7122 16.5964 12.8164 16.2969 12.8164 15.9062V12.1328H14.0742V15.9297C14.0742 16.7474 13.8711 17.3594 13.4648 17.7656C13.0638 18.1719 12.4596 18.375 11.6523 18.375H3.35547ZM8.16016 10.6172C7.9987 10.6172 7.85807 10.5573 7.73828 10.4375C7.61849 10.3125 7.55859 10.1667 7.55859 10C7.55859 9.83333 7.61849 9.6875 7.73828 9.5625C7.85807 9.4375 7.9987 9.375 8.16016 9.375H16.1836L17.3555 9.42969L16.8008 8.89844L15.543 7.71094C15.418 7.60156 15.3555 7.45833 15.3555 7.28125C15.3555 7.11979 15.4049 6.98698 15.5039 6.88281C15.6081 6.77344 15.7409 6.71875 15.9023 6.71875C16.0534 6.71875 16.1914 6.78125 16.3164 6.90625L18.8633 9.54688C18.9414 9.625 18.9935 9.70052 19.0195 9.77344C19.0508 9.84635 19.0664 9.92188 19.0664 10C19.0664 10.0781 19.0508 10.1536 19.0195 10.2266C18.9935 10.2995 18.9414 10.375 18.8633 10.4531L16.3164 13.0938C16.1914 13.2135 16.0534 13.2734 15.9023 13.2734C15.7409 13.2734 15.6081 13.2188 15.5039 13.1094C15.4049 13 15.3555 12.8646 15.3555 12.7031C15.3555 12.5312 15.418 12.3906 15.543 12.2812L16.8008 11.1016L17.3555 10.5703L16.1836 10.6172H8.16016Z" fill="#F25353"/>
</g>
</svg>
