<svg width="36" height="24" viewBox="0 0 36 24" fill="none" xmlns="http://www.w3.org/2000/svg">
<g id="icon_&#230;&#144;&#156;&#231;&#180;&#162;">
<path id="Vector" d="M26.8879 17.9301L24.0141 14.1777C25.0335 13.2053 25.674 11.8438 25.674 10.3281C25.674 7.39065 23.2764 4.99976 20.3322 4.99976C17.3847 4.99976 14.9904 7.39065 14.9904 10.3281C14.9904 13.2656 17.388 15.6565 20.3322 15.6565C21.2812 15.6565 22.1698 15.405 22.9444 14.9724L25.8283 18.7382C25.959 18.9092 26.1569 18.9998 26.3614 18.9998C26.5023 18.9998 26.6465 18.9562 26.7638 18.8623C27.0556 18.6376 27.1126 18.2218 26.8879 17.9301ZM16.2278 10.3281C16.2278 8.07137 18.0687 6.23712 20.3322 6.23712C22.5957 6.23712 24.4366 8.07137 24.4366 10.3281C24.4366 12.5849 22.5957 14.4192 20.3322 14.4192C18.0687 14.4192 16.2278 12.5849 16.2278 10.3281ZM13.6424 7.64886H9.64191C9.27305 7.64886 8.97461 7.35041 8.97461 6.98491C8.97461 6.6194 9.27305 6.32095 9.64191 6.32095H13.6424C14.0113 6.32095 14.3097 6.6194 14.3097 6.98491C14.3097 7.35041 14.0113 7.64886 13.6424 7.64886ZM13.4814 14.2247H9.64191C9.27305 14.2247 8.97461 13.9262 8.97461 13.5607C8.97461 13.1952 9.27305 12.8968 9.64191 12.8968H13.4814C13.8503 12.8968 14.1487 13.1952 14.1487 13.5607C14.1487 13.9262 13.8503 14.2247 13.4814 14.2247ZM12.6934 10.9284H9.64191C9.27305 10.9284 8.97461 10.6299 8.97461 10.2611C8.97461 9.89221 9.27305 9.59377 9.64191 9.59377H12.6934C13.0623 9.59377 13.3607 9.89221 13.3607 10.2611C13.3574 10.6299 13.0589 10.9284 12.6934 10.9284ZM16.989 17.6383H9.64191C9.27305 17.6383 8.97461 17.3399 8.97461 16.971C8.97461 16.6022 9.27305 16.3037 9.64191 16.3037H16.989C17.3578 16.3037 17.6563 16.6022 17.6563 16.971C17.6563 17.3399 17.3578 17.6383 16.989 17.6383Z" fill="black"/>
</g>
</svg>
