<svg width="16" height="16" viewBox="0 0 16 16" fill="none" xmlns="http://www.w3.org/2000/svg">
<g id="Group">
<path id="Vector" d="M0.164062 6.52735C0.164062 9.96485 2.96094 12.7618 6.39844 12.7618C7.75781 12.7618 9 12.3242 10.0234 11.5899L13.8672 15.4414C14.0469 15.6211 14.2813 15.7071 14.5313 15.7071C15.0625 15.7071 15.4297 15.3086 15.4297 14.7852C15.4297 14.5352 15.336 14.3086 15.1719 14.1446L11.3516 10.3008C12.1563 9.25391 12.6329 7.94922 12.6329 6.52735C12.6329 3.08985 9.83594 0.292969 6.39844 0.292969C2.96094 0.292969 0.164062 3.08985 0.164062 6.52735ZM1.5 6.52735C1.5 3.82422 3.69531 1.62891 6.39844 1.62891C9.10156 1.62891 11.2969 3.82422 11.2969 6.52735C11.2969 9.23047 9.10156 11.4258 6.39844 11.4258C3.69531 11.4258 1.5 9.23047 1.5 6.52735Z" fill="#E2E2E2"/>
</g>
</svg>
