<svg width="14" height="16" viewBox="0 0 14 16" fill="none" xmlns="http://www.w3.org/2000/svg">
<g id="Group">
<path id="Vector" d="M4.85481 12.5084C5.04682 12.5084 5.17009 12.3836 5.16571 12.2087L4.9532 5.18252C4.94882 5.00758 4.81964 4.8911 4.64229 4.8911C4.45224 4.8911 4.32503 5.01196 4.32941 5.19084L4.53755 12.2126C4.54193 12.39 4.6652 12.5084 4.85481 12.5084ZM6.74945 12.5084C6.9395 12.5084 7.07547 12.3856 7.07547 12.2087V5.19084C7.07547 5.01393 6.9395 4.8911 6.74945 4.8911C6.5594 4.8911 6.42979 5.01393 6.42979 5.19084V12.2087C6.42979 12.3856 6.5594 12.5084 6.74945 12.5084ZM8.64651 12.5124C8.82977 12.5124 8.95501 12.3939 8.95939 12.2146L9.16753 5.19478C9.17192 5.01393 9.0447 4.89504 8.85465 4.89504C8.6773 4.89504 8.54616 5.00955 8.54375 5.18887L8.33561 12.2126C8.33123 12.3856 8.4545 12.5124 8.64651 12.5124ZM4.03367 3.23633H4.81075V1.88974C4.81075 1.47282 5.09418 1.21238 5.54194 1.21238H7.94427C8.394 1.21238 8.67743 1.47282 8.67743 1.88974V3.23633H9.45451V1.84791C9.45451 0.992431 8.90112 0.479095 7.98458 0.479095H5.49966C4.58706 0.479095 4.03367 0.992431 4.03367 1.84791V3.23633ZM1.04952 3.62608H12.4518C12.655 3.62608 12.8152 3.45507 12.8152 3.25385C12.8152 3.0487 12.653 2.88404 12.4518 2.88404H1.04952C0.852676 2.88404 0.677734 3.05066 0.677734 3.25385C0.677734 3.46142 0.852676 3.62608 1.04952 3.62608ZM3.87174 14.4756H9.62761C10.4448 14.4756 11.0345 13.9089 11.075 13.0976L11.5508 3.51728H10.7571L10.2964 13.0192C10.2817 13.4276 9.96549 13.7316 9.5595 13.7316H3.93109C3.53189 13.7316 3.21762 13.4232 3.19661 13.0192L2.72034 3.51925H1.94809L2.42829 13.102C2.46878 13.9133 3.04775 14.4756 3.87174 14.4756Z" fill="#F25353"/>
</g>
</svg>
