<svg width="14" height="13" viewBox="0 0 14 13" fill="none" xmlns="http://www.w3.org/2000/svg">
<g id="Group">
<path id="Vector" d="M7.64067 12.1945C7.90645 12.1945 8.12492 12.0774 8.36664 11.8508L13.3612 7.1611C13.6299 6.90504 13.7006 6.69138 13.7006 6.49568C13.7006 6.2956 13.6363 6.08434 13.3612 5.82586L8.36664 1.16688C8.10302 0.918369 7.91521 0.796875 7.64943 0.796875C7.26805 0.796875 7.01364 1.09287 7.01364 1.45716V3.99431H6.79414C2.48401 3.99431 0.282715 6.64116 0.282715 11.4836C0.282715 11.9351 0.542588 12.1945 0.842071 12.1945C1.08309 12.1945 1.31408 12.1192 1.49689 11.7661C2.51283 9.71204 4.14475 9.02306 6.79414 9.02306H7.01364V11.5541C7.01364 11.9184 7.26805 12.1945 7.64067 12.1945ZM7.89622 11.1682C7.83757 11.1682 7.79948 11.1242 7.79948 11.0592V8.47474C7.79948 8.33662 7.74388 8.28101 7.60575 8.28101H6.90078C3.83054 8.28101 1.91114 9.27524 1.12867 11.0515C1.10569 11.1078 1.08512 11.1445 1.04158 11.1445C1.00045 11.1445 0.979435 11.1156 0.979435 11.0609C1.0631 7.45088 2.73671 4.73636 6.90078 4.73636H7.60575C7.74388 4.73636 7.79948 4.68075 7.79948 4.54262V1.88881C7.79948 1.83015 7.84151 1.78813 7.90258 1.78813C7.95247 1.78813 7.99448 1.82139 8.03606 1.85466L12.713 6.28652C12.7988 6.3703 12.8316 6.432 12.8316 6.49568C12.8316 6.55935 12.8071 6.61666 12.713 6.70482L8.02774 11.0973C7.98026 11.1472 7.93824 11.1682 7.89622 11.1682Z" fill="#303030"/>
</g>
</svg>
