<svg width="18" height="18" viewBox="0 0 18 18" fill="none" xmlns="http://www.w3.org/2000/svg">
<g id="Group">
<path id="Vector" d="M4.99219 17.5821C5.375 17.5821 5.64062 17.3789 6.11719 16.9571L8.8125 14.5586H13.8281C16.1563 14.5586 17.4063 13.2696 17.4063 10.9805V4.99609C17.4063 2.70703 16.1563 1.41797 13.8281 1.41797H3.76562C1.4375 1.41797 0.1875 2.69922 0.1875 4.99609V10.9805C0.1875 13.2774 1.4375 14.5586 3.76562 14.5586H4.14062V16.5899C4.14062 17.1914 4.44531 17.5821 4.99219 17.5821ZM5.3125 16.1524V13.8868C5.3125 13.4649 5.14844 13.3008 4.72656 13.3008H3.76562C2.1875 13.3008 1.44531 12.4961 1.44531 10.9727V4.99609C1.44531 3.47266 2.1875 2.67578 3.76562 2.67578H13.8281C15.3984 2.67578 16.1484 3.47266 16.1484 4.99609V10.9727C16.1484 12.4961 15.3984 13.3008 13.8281 13.3008H8.76562C8.32812 13.3008 8.10938 13.3633 7.8125 13.668L5.3125 16.1524Z" fill="#A4A4A4"/>
<path id="Vector_2" d="M4.77344 5.83203H12.7266C12.9766 5.83203 13.1719 5.63672 13.1719 5.37891C13.1719 5.13672 12.9766 4.93359 12.7266 4.93359H4.77344C4.52344 4.93359 4.32031 5.13672 4.32031 5.37891C4.32031 5.63672 4.52344 5.83203 4.77344 5.83203ZM4.77344 8.37891H12.7266C12.9766 8.37891 13.1719 8.17578 13.1719 7.91797C13.1719 7.67578 12.9766 7.47266 12.7266 7.47266H4.77344C4.52344 7.47266 4.32031 7.67578 4.32031 7.91797C4.32031 8.17578 4.52344 8.37891 4.77344 8.37891ZM4.77344 10.918H9.94531C10.1953 10.918 10.3906 10.7227 10.3906 10.4727C10.3906 10.2149 10.1953 10.0117 9.94531 10.0117H4.77344C4.52344 10.0117 4.32031 10.2149 4.32031 10.4727C4.32031 10.7227 4.52344 10.918 4.77344 10.918Z" fill="#A4A4A4"/>
</g>
</svg>
