<svg width="16" height="14" viewBox="0 0 16 14" fill="none" xmlns="http://www.w3.org/2000/svg">
<g id="Group">
<path id="Vector" d="M4.4983 13.8135C4.74046 13.8135 4.91299 13.6819 5.19984 13.4316L7.42914 11.475H11.9392C13.6616 11.475 14.6359 10.4749 14.6359 8.78039V3.67605C14.6359 1.97951 13.6616 0.97937 11.9392 0.97937H3.55288C1.82854 0.97937 0.856201 1.96923 0.856201 3.67605V8.78039C0.856201 10.4852 1.82854 11.475 3.55288 11.475H3.95989V13.1864C3.95989 13.567 4.15825 13.8135 4.4983 13.8135ZM4.69361 12.9254V11.059C4.69361 10.795 4.58786 10.6912 4.3238 10.6912H3.55681C2.3041 10.6912 1.64204 9.99412 1.64204 8.7701V3.67998C1.64204 2.45597 2.3041 1.76521 3.55681 1.76521H11.9333C13.1718 1.76521 13.85 2.45597 13.85 3.67998V8.7701C13.85 9.99412 13.1718 10.6912 11.9333 10.6912H7.42844C7.13987 10.6912 6.99362 10.7341 6.78587 10.9423L4.69361 12.9254Z" fill="#303030"/>
<path id="Vector_2" d="M4.37571 4.38471H10.932C11.0958 4.38471 11.225 4.25554 11.225 4.08739C11.225 3.92603 11.0958 3.79248 10.932 3.79248H4.37571C4.20997 3.79248 4.07642 3.92603 4.07642 4.08739C4.07642 4.25554 4.20997 4.38471 4.37571 4.38471ZM4.37571 6.45405H10.932C11.0958 6.45405 11.225 6.3205 11.225 6.15038C11.225 5.99099 11.0958 5.85743 10.932 5.85743H4.37571C4.20997 5.85743 4.07642 5.99099 4.07642 6.15038C4.07642 6.3205 4.20997 6.45405 4.37571 6.45405ZM4.37571 8.52097H8.67231C8.83608 8.52097 8.96526 8.38983 8.96526 8.22606C8.96526 8.05791 8.83608 7.92436 8.67231 7.92436H4.37571C4.20997 7.92436 4.07642 8.05791 4.07642 8.22606C4.07642 8.38983 4.20997 8.52097 4.37571 8.52097Z" fill="#303030"/>
</g>
</svg>
