<svg width="12" height="14" viewBox="0 0 12 14" fill="none" xmlns="http://www.w3.org/2000/svg">
<g id="Group">
<path id="Vector" d="M0.984375 6.99609C0.984375 7.1914 1.05469 7.36328 1.20312 7.51172L7.39844 13.5664C7.53126 13.707 7.70312 13.7773 7.90625 13.7773C8.31249 13.7773 8.625 13.4726 8.625 13.0664C8.625 12.8632 8.53906 12.6914 8.41406 12.5586L2.72657 6.99609L8.41406 1.43359C8.53906 1.30078 8.625 1.12109 8.625 0.925782C8.625 0.519532 8.31249 0.214844 7.90625 0.214844C7.70312 0.214844 7.53126 0.285156 7.39844 0.417969L1.20312 6.48046C1.05469 6.62109 0.984375 6.80078 0.984375 6.99609Z" fill="black" fill-opacity="0.85"/>
</g>
</svg>
