<svg width="10" height="10" viewBox="0 0 10 10" fill="none" xmlns="http://www.w3.org/2000/svg">
<g id="&#229;&#133;&#179;&#233;&#151;&#173;" clip-path="url(#clip0_145_13148)">
<g id="Group">
<path id="Vector" d="M0.194349 9.79888C0.458147 10.0623 0.903073 10.059 1.15425 9.80224L4.88826 5.98567L8.62006 9.8011C8.87565 10.0623 9.32007 10.0663 9.57889 9.7978C9.83771 9.52817 9.83883 9.08403 9.58324 8.82177L5.85144 5.0012L9.58324 1.18686C9.83883 0.92567 9.84268 0.476492 9.57889 0.211948C9.3151 -0.057683 8.87565 -0.0587997 8.62006 0.207482L4.88826 4.02182L1.15425 0.206365C0.903073 -0.0543328 0.453171 -0.0638872 0.194349 0.210832C-0.0633806 0.480463 -0.0601031 0.929024 0.191071 1.18575L3.92508 5.0012L0.191071 8.824C-0.0601031 9.07958 -0.0683581 9.53433 0.194349 9.79888Z" fill="#535353"/>
</g>
</g>
<defs>
<clipPath id="clip0_145_13148">
<rect width="10" height="10" fill="white"/>
</clipPath>
</defs>
</svg>
