<svg width="6" height="8" viewBox="0 0 6 8" fill="none" xmlns="http://www.w3.org/2000/svg">
<g id="Group">
<path id="Vector" d="M5.31037 3.99941C5.31037 3.90165 5.27127 3.81172 5.19698 3.74134L2.10021 0.70713C2.02983 0.640659 1.9438 0.605469 1.84215 0.605469C1.64273 0.605469 1.48633 0.757962 1.48633 0.961285C1.48633 1.05904 1.52543 1.14897 1.58799 1.21544L4.43452 3.99941L1.58799 6.7834C1.52543 6.84986 1.48633 6.93585 1.48633 7.03754C1.48633 7.24084 1.64273 7.39334 1.84215 7.39334C1.9438 7.39334 2.02983 7.35816 2.10021 7.28779L5.19698 4.25747C5.27127 4.18318 5.31037 4.09716 5.31037 3.99941Z" fill="black" fill-opacity="0.85"/>
</g>
</svg>
