<svg width="11" height="10" viewBox="0 0 11 10" fill="none" xmlns="http://www.w3.org/2000/svg">
<g id="icon_&#229;&#155;&#158;&#232;&#189;&#166;&#233;&#148;&#174;" clip-path="url(#clip0_145_23078)">
<g id="Group">
<path id="Vector" d="M9.45214 0.894531C9.19824 0.894531 9.01757 1.07031 9.01757 1.32422C9.01757 1.5 9.02734 1.65625 9.02734 1.89063C9.02734 3.70215 8.39746 4.43945 6.60547 4.43945H3.23632L2.03515 4.51269L3.68554 3.00391L4.76953 1.90039C4.84765 1.82227 4.88671 1.70996 4.88671 1.59277C4.88671 1.34863 4.70117 1.17285 4.46191 1.17285C4.34472 1.17285 4.24218 1.21191 4.13964 1.30469L0.897461 4.54687C0.799805 4.63965 0.746094 4.75683 0.746094 4.87402C0.746094 4.99609 0.799805 5.1084 0.897461 5.20605L4.12988 8.43359C4.2373 8.53613 4.34472 8.58008 4.46191 8.58008C4.70117 8.58008 4.88671 8.4043 4.88671 8.16015C4.88671 8.04297 4.84765 7.93066 4.76953 7.84765L3.68554 6.74414L2.04004 5.24512L3.23632 5.31348H6.64941C8.96875 5.31348 9.91113 4.29785 9.91113 1.93457C9.91113 1.64648 9.90136 1.40723 9.87207 1.25586C9.82812 1.06055 9.71093 0.894531 9.45214 0.894531Z" fill="#E2E2E2"/>
</g>
</g>
<defs>
<clipPath id="clip0_145_23078">
<rect width="9.73145" height="8.20801" fill="white" transform="translate(0.746094 0.894531)"/>
</clipPath>
</defs>
</svg>
