<svg width="14" height="14" viewBox="0 0 14 14" fill="none" xmlns="http://www.w3.org/2000/svg">
<g id="Group">
<path id="Vector" d="M6.74529 13.3632C10.2361 13.3632 13.1136 10.4813 13.1136 6.99683C13.1136 3.50797 10.2317 0.630447 6.74091 0.630447C3.25643 0.630447 0.378906 3.50797 0.378906 6.99683C0.378906 10.4813 3.26081 13.3632 6.74529 13.3632ZM6.74529 12.5399C3.67442 12.5399 1.20658 10.0677 1.20658 6.99683C1.20658 3.92596 3.67004 1.45177 6.74091 1.45177C9.81178 1.45177 12.2903 3.92596 12.2903 6.99683C12.2903 10.0677 9.81616 12.5399 6.74529 12.5399Z" fill="#A4A4A4"/>
<path id="Vector_2" d="M6.62182 8.29112C6.86443 8.29112 7.01595 8.13129 7.01595 7.93292C7.01595 7.88785 7.01595 7.84234 7.01595 7.80165C7.01595 7.42847 7.20727 7.19405 7.67718 6.88042C8.31258 6.45449 8.6817 6.08436 8.6817 5.38954C8.6817 4.44012 7.83276 3.8708 6.79302 3.8708C5.74451 3.8708 5.06068 4.41492 4.92274 5.02842C4.89888 5.12211 4.8877 5.20793 4.8877 5.30994C4.8877 5.53655 5.05674 5.65938 5.22686 5.65938C5.40332 5.65938 5.51936 5.57159 5.59426 5.43893L5.67113 5.31413C5.81656 4.883 6.21944 4.54715 6.7628 4.54715C7.41521 4.54715 7.83302 4.91264 7.83302 5.43048C7.83302 5.86409 7.58609 6.10308 7.0063 6.50603C6.51975 6.84506 6.22814 7.17755 6.22814 7.75633C6.22814 7.80337 6.22814 7.85281 6.22814 7.89985C6.22814 8.15319 6.37483 8.29112 6.62182 8.29112ZM6.61109 10.102C6.93006 10.102 7.20022 9.84154 7.20022 9.52847C7.20022 9.2095 6.93444 8.95489 6.61109 8.95489C6.28578 8.95489 6.02 9.21388 6.02 9.52847C6.02 9.83912 6.29016 10.102 6.61109 10.102Z" fill="#A4A4A4"/>
</g>
</svg>
