<svg width="11" height="10" viewBox="0 0 11 10" fill="none" xmlns="http://www.w3.org/2000/svg">
<g id="command" clip-path="url(#clip0_145_23084)">
<g id="Group">
<path id="Vector" d="M3.20117 3.85937V6.13965H2.21972C1.25781 6.13965 0.476562 6.89648 0.476562 7.86328C0.476562 8.83008 1.25781 9.61133 2.21972 9.61133C3.18164 9.61133 3.96289 8.83008 3.96289 7.86328V6.88672H6.21386V7.86328C6.21386 8.83008 6.99511 9.61133 7.95703 9.61133C8.91894 9.61133 9.70019 8.83008 9.70019 7.86328C9.70019 6.89648 8.91894 6.13965 7.95703 6.13965H6.97558V3.85937H7.95703C8.91894 3.85937 9.70019 3.10254 9.70019 2.13574C9.70019 1.16895 8.91894 0.382812 7.95703 0.382812C6.99511 0.382812 6.21386 1.16895 6.21386 2.13574V3.1123H3.96289V2.13574C3.96289 1.16895 3.18164 0.382812 2.21972 0.382812C1.25781 0.382812 0.476562 1.16895 0.476562 2.13574C0.476562 3.10254 1.25781 3.85937 2.21972 3.85937H3.20117ZM2.21972 3.12207C1.68261 3.12207 1.23828 2.67773 1.23828 2.13574C1.23828 1.59375 1.68261 1.14453 2.21972 1.14453C2.75683 1.14453 3.20117 1.59375 3.20117 2.13574V3.12207H2.21972ZM7.95703 3.12207H6.97558V2.13574C6.97558 1.59375 7.41992 1.14453 7.95703 1.14453C8.49414 1.14453 8.93847 1.59375 8.93847 2.13574C8.93847 2.67773 8.49414 3.12207 7.95703 3.12207ZM3.96289 6.14941V3.84961H6.21386V6.14941H3.96289ZM2.21972 6.87207H3.20117V7.8584C3.20117 8.40039 2.75683 8.84472 2.21972 8.84472C1.68261 8.84472 1.23828 8.40039 1.23828 7.8584C1.23828 7.3164 1.68261 6.87207 2.21972 6.87207ZM7.95703 6.87207C8.49414 6.87207 8.93847 7.3164 8.93847 7.8584C8.93847 8.40039 8.49414 8.84472 7.95703 8.84472C7.41992 8.84472 6.97558 8.40039 6.97558 7.8584V6.87207H7.95703Z" fill="#E2E2E2"/>
</g>
</g>
<defs>
<clipPath id="clip0_145_23084">
<rect width="9.79004" height="9.2334" fill="white" transform="translate(0.476562 0.382812)"/>
</clipPath>
</defs>
</svg>
