<svg width="16" height="16" viewBox="0 0 16 16" fill="none" xmlns="http://www.w3.org/2000/svg">
<g id="Group">
<path id="Vector" d="M0.324219 8.05648C0.324219 9.7248 1.25154 10.6275 3.01249 10.6275H5.52408C7.94498 10.8879 10.6555 11.6497 12.6162 13.0123V12.0613C10.6679 10.7179 8.05251 10.0461 5.4954 9.78189H3.01249C1.74672 9.78189 1.18197 9.24609 1.18197 8.05648V6.94868C1.18197 5.75224 1.74672 5.22118 3.01249 5.22118H5.45451C8.04509 4.96164 10.6967 4.27104 12.6162 2.9371V1.9907C10.7155 3.34869 7.82497 4.14338 5.55061 4.37773H3.01249C1.25154 4.37773 0.324219 5.27091 0.324219 6.94868V8.05648ZM6.57014 10.5471H5.76187L6.3503 13.5076C6.42506 13.9039 6.2249 14.1528 5.94734 14.2469C5.64949 14.3522 5.26087 14.2665 5.04996 13.8222L3.46049 10.4301H2.57765L4.20392 13.9653C4.73125 15.122 5.60985 15.2056 6.26259 15.0155C6.89862 14.8249 7.29501 14.2542 7.12346 13.3733L6.57014 10.5471ZM4.78418 4.79307V10.2121H5.64671V4.79307H4.78418ZM12.3008 12.6194C12.3008 13.5096 12.9078 14.1053 13.806 14.1053C14.7137 14.1053 15.3159 13.5096 15.3159 12.6194V2.35489C15.3159 1.46471 14.7137 0.871094 13.806 0.871094C12.9078 0.871094 12.3008 1.46471 12.3008 2.35489V12.6194ZM13.1612 12.6194V2.35489C13.1612 1.97007 13.4156 1.71456 13.806 1.71456C14.1963 1.71456 14.4603 1.97007 14.4603 2.35489V12.6194C14.4603 13.0064 14.1963 13.2597 13.806 13.2597C13.4156 13.2597 13.1612 13.0064 13.1612 12.6194Z" fill="black" fill-opacity="0.85"/>
</g>
</svg>
