<svg width="18" height="13" viewBox="0 0 18 13" fill="none" xmlns="http://www.w3.org/2000/svg">
<g id="Group">
<path id="Vector" d="M13.5217 2.09779V3.00799H12.7378V2.14115C12.7378 1.40819 12.3327 1.02803 11.6315 1.02803H2.85067C2.13522 1.02803 1.75069 1.40819 1.75069 2.14115V8.09582C1.75069 8.82878 2.13522 9.20457 2.85067 9.20457H3.97071V9.98844H2.836C1.59352 9.98844 0.964844 9.36415 0.964844 8.13283V2.09779C0.964844 0.870859 1.59352 0.242188 2.836 0.242188H11.6505C12.8862 0.242188 13.5217 0.876763 13.5217 2.09779Z" fill="#303030"/>
<path id="Vector_2" d="M5.84579 12.756H14.6584C15.8941 12.756 16.5315 12.1215 16.5315 10.9004V4.86342C16.5315 3.64238 15.8941 3.00781 14.6584 3.00781H5.84579C4.60133 3.00781 3.97266 3.63648 3.97266 4.86342V10.9004C3.97266 12.1318 4.60133 12.756 5.84579 12.756ZM5.85849 11.9702C5.14304 11.9702 4.7585 11.5944 4.7585 10.8615V4.90677C4.7585 4.17381 5.14304 3.79365 5.85849 3.79365H14.6413C15.3425 3.79365 15.7457 4.17381 15.7457 4.90677V10.8615C15.7457 11.5944 15.3425 11.9702 14.6413 11.9702H5.85849Z" fill="#303030"/>
<path id="Vector_3" d="M7.37109 7.88481C7.37109 8.11276 7.54406 8.28332 7.78908 8.28332H9.84617V10.3448C9.84617 10.5855 10.0124 10.7604 10.2447 10.7604C10.4873 10.7604 10.6622 10.5874 10.6622 10.3448V8.28332H12.7237C12.9643 8.28332 13.1392 8.11276 13.1392 7.88481C13.1392 7.63783 12.9663 7.46726 12.7237 7.46726H10.6622V5.41018C10.6622 5.15881 10.4873 4.99219 10.2447 4.99219C10.0124 4.99219 9.84617 5.16516 9.84617 5.41018V7.46726H7.78908C7.53771 7.46726 7.37109 7.63783 7.37109 7.88481Z" fill="#303030"/>
</g>
</svg>
