<svg width="20" height="21" viewBox="0 0 20 21" fill="none" xmlns="http://www.w3.org/2000/svg">
<g id="Group">
<path id="Vector" d="M10.9416 2.89728C10.8874 2.88221 10.829 2.87364 10.7664 2.87364C10.2855 2.87364 9.8566 3.10765 9.5893 3.47024C8.95571 3.56678 8.56264 4.12079 8.5129 4.8456C8.49298 5.0681 8.36423 5.16427 8.13743 5.22326C6.7797 5.59286 5.88275 6.71755 5.73548 9.61818C5.58767 11.2554 5.46009 12.6483 4.74986 13.4138C4.30486 13.896 3.7804 14.4514 3.68579 14.7627V14.8516H15.8999V14.7627C15.8053 14.4514 15.2863 13.896 14.8359 13.4138C14.1653 12.6855 14.0172 11.3892 13.8771 9.85441C14.0046 9.89151 14.14 9.91107 14.2809 9.91107C14.4797 9.91107 14.6685 9.87043 14.8382 9.79672C14.9552 10.955 15.0549 12.2048 15.6446 12.8409C16.2947 13.5338 17.0577 14.22 17.0577 15.0061C17.0577 15.465 16.7092 15.7649 16.1468 15.7649H12.4528C12.4048 17.2345 11.3196 18.4332 9.79407 18.4332C8.27157 18.4332 7.18634 17.2291 7.13837 15.7649H3.44431C2.87649 15.7649 2.53345 15.465 2.53345 15.0061C2.53345 14.22 3.29103 13.5338 3.94649 12.8409C4.58321 12.1541 4.64876 10.7517 4.78149 9.52146C4.90884 6.84779 5.69845 5.02083 7.68454 4.37497C7.90118 3.32732 8.7086 2.55896 9.79407 2.55896C10.2289 2.55896 10.618 2.68159 10.9416 2.89728ZM8.0786 15.7649C8.13571 16.8734 8.83478 17.5762 9.79407 17.5762C10.7563 17.5762 11.45 16.8734 11.5125 15.7649H8.0786Z" fill="black" fill-opacity="0.85"/>
<path id="Vector_2" d="M9.729 5.87965C9.729 8.06359 11.2662 9.49248 13.5416 9.49248C14.08 9.49248 14.3881 9.45861 14.5879 9.37735C14.7775 9.29948 14.8621 9.18774 14.8621 8.98458C14.8621 8.75772 14.7301 8.60535 14.4355 8.60535C14.3509 8.60535 14.2797 8.61212 14.1985 8.6155C14.0495 8.63244 13.8971 8.64937 13.6635 8.64937C11.8419 8.64937 10.6805 7.57263 10.6805 5.89657C10.6805 4.22729 11.8148 3.10654 13.4502 3.10654C14.9976 3.10654 16.0201 4.08846 16.0201 5.65278C16.0201 6.35368 15.8034 6.81756 15.4614 6.81756C15.2346 6.81756 15.1093 6.6381 15.1093 6.32321V4.70471C15.1093 4.34242 14.9129 4.14263 14.554 4.14263C14.2019 4.14263 14.0055 4.34242 14.0055 4.70471V4.74873H13.9141C13.7448 4.35595 13.3825 4.14263 12.9118 4.14263C12.0687 4.14263 11.5066 4.83338 11.5066 5.88642C11.5066 6.98008 12.0992 7.71146 12.9999 7.71146C13.4942 7.71146 13.8125 7.48797 13.9886 7.05797H14.0732C14.2154 7.46767 14.6183 7.70129 15.1804 7.70129C16.291 7.70129 16.9614 6.8548 16.9614 5.51395C16.9614 3.5738 15.5393 2.26343 13.4502 2.26343C11.2527 2.26343 9.729 3.73633 9.729 5.87965ZM13.3215 6.75999C12.9626 6.75999 12.7493 6.45187 12.7493 5.93044C12.7493 5.40561 12.966 5.09071 13.3215 5.09071C13.677 5.09071 13.8971 5.40561 13.8971 5.93044C13.8971 6.45187 13.6804 6.75999 13.3215 6.75999Z" fill="#303030"/>
</g>
</svg>
