<svg width="18" height="18" viewBox="0 0 18 18" fill="none" xmlns="http://www.w3.org/2000/svg">
<g id="Group">
<path id="Vector" d="M4.91062 6.59234C4.82319 7.0341 4.76452 7.54082 4.73571 8.11782C4.59329 9.75508 4.46032 11.1479 3.75547 11.9134C3.30508 12.3956 2.7836 12.951 2.69141 13.2623V13.3512H11.6735L12.5874 14.2645H11.4506C11.4026 15.7341 10.3198 16.9328 8.79727 16.9328C7.26938 16.9328 6.18656 15.7287 6.1386 14.2645H2.44454C1.87969 14.2645 1.53125 13.9646 1.53125 13.5057C1.53125 12.7196 2.29664 12.0334 2.95211 11.3405C3.58641 10.6537 3.64657 9.25133 3.7793 8.0211C3.81881 7.19162 3.92205 6.44364 4.10533 5.78752L4.91062 6.59234ZM7.07883 14.2645C7.13891 15.373 7.835 16.0758 8.79727 16.0758C9.75414 16.0758 10.4532 15.373 10.5103 14.2645H7.07883ZM10.9122 2.87461C12.8959 3.52047 13.6825 5.34743 13.8153 8.0211C13.9426 9.25133 14.0081 10.6537 14.6424 11.3405C15.2979 12.0334 16.0555 12.7196 16.0555 13.5057C16.0555 13.6904 15.9999 13.8494 15.8956 13.9727L13.8829 11.9608C13.8681 11.9448 13.8535 11.9291 13.8391 11.9134C13.1289 11.1479 13.0013 9.75508 12.8589 8.11782C12.7062 5.21719 11.8092 4.0925 10.4539 3.72289C10.2271 3.66391 10.0959 3.56774 10.0784 3.34524C10.0211 2.54485 9.54993 1.95274 8.79727 1.95274C8.03922 1.95274 7.57344 2.54485 7.51071 3.34524C7.49321 3.56774 7.36743 3.66391 7.14063 3.72289C6.76923 3.82378 6.4322 3.98091 6.13698 4.21789L5.45695 3.53812C5.80063 3.25119 6.20725 3.02911 6.68235 2.87461C6.9068 1.82696 7.70883 1.05859 8.79727 1.05859C9.88032 1.05859 10.6878 1.82696 10.9122 2.87461Z" fill="#303030"/>
<path id="Vector_2" d="M1.7586 2.30239L15.9642 16.4973C16.1478 16.6862 16.4488 16.6862 16.6245 16.4973C16.8104 16.3137 16.808 16.0235 16.6245 15.837L2.42422 1.63973C2.24555 1.46106 1.95235 1.45622 1.7586 1.63973C1.58047 1.81786 1.58047 2.12427 1.7586 2.30239Z" fill="#303030"/>
</g>
</svg>
