<svg width="16" height="16" viewBox="0 0 16 16" fill="none" xmlns="http://www.w3.org/2000/svg">
<g id="Group">
<path id="Vector" d="M0.535156 12.5057C0.535156 12.9646 0.878204 13.2645 1.44602 13.2645H5.14008C5.18805 14.7288 6.27328 15.9328 7.79579 15.9328C9.32126 15.9328 10.4065 14.7341 10.4545 13.2645H14.1486C14.711 13.2645 15.0594 12.9646 15.0594 12.5057C15.0594 11.7196 14.2965 11.0334 13.6464 10.3406C13.0097 9.65375 12.9441 8.25133 12.8114 7.0211C12.684 4.34742 11.8944 2.52047 9.90829 1.87461C9.68626 0.826954 8.88422 0.0585938 7.79579 0.0585938C6.71032 0.0585938 5.90289 0.826954 5.68625 1.87461C3.70016 2.52047 2.91055 4.34742 2.78321 7.0211C2.65047 8.25133 2.58493 9.65375 1.94821 10.3406C1.29273 11.0334 0.535156 11.7196 0.535156 12.5057ZM1.68751 12.3513V12.2623C1.78212 11.951 2.30657 11.3956 2.75157 10.9134C3.4618 10.148 3.58938 8.75508 3.73719 7.11781C3.88446 4.21719 4.78141 3.0925 6.13915 2.72289C6.36594 2.6639 6.49469 2.56773 6.51461 2.34523C6.56954 1.54484 7.04313 0.952737 7.79579 0.952737C8.55141 0.952737 9.01961 1.54484 9.07993 2.34523C9.09985 2.56773 9.22321 2.6639 9.45 2.72289C10.8132 3.0925 11.7101 4.21719 11.8574 7.11781C12.0052 8.75508 12.1328 10.148 12.8376 10.9134C13.288 11.3956 13.8071 11.951 13.9017 12.2623V12.3513H1.68751ZM6.08032 13.2645H9.51422C9.45172 14.3731 8.75805 15.0759 7.79579 15.0759C6.83649 15.0759 6.13743 14.3731 6.08032 13.2645Z" fill="#303030"/>
</g>
</svg>
