<svg width="16" height="18" viewBox="0 0 16 18" fill="none" xmlns="http://www.w3.org/2000/svg">
<g id="Group">
<path id="Vector" d="M8.73509 1.27523C8.52864 1.49772 8.35386 1.74935 8.21652 2.02299C8.08908 1.97685 7.94828 1.95273 7.79579 1.95273C7.04313 1.95273 6.56954 2.54484 6.51461 3.34523C6.49469 3.56773 6.36594 3.66391 6.13915 3.72289C4.78141 4.0925 3.88446 5.21719 3.73719 8.11782C3.58938 9.75508 3.4618 11.148 2.75157 11.9134C2.30657 12.3956 1.78212 12.951 1.68751 13.2623V13.3512H13.9017V13.2623C13.8071 12.951 13.288 12.3956 12.8376 11.9134C12.1328 11.148 12.0052 9.75508 11.8574 8.11782C11.838 7.73498 11.8055 7.38309 11.7597 7.06167C12.0879 7.02246 12.4017 6.93361 12.6947 6.80413C12.7535 7.18537 12.791 7.59235 12.8114 8.0211C12.9441 9.25133 13.0097 10.6537 13.6464 11.3405C14.2965 12.0334 15.0594 12.7196 15.0594 13.5057C15.0594 13.9646 14.711 14.2645 14.1486 14.2645H10.4545C10.4065 15.7341 9.32126 16.9328 7.79579 16.9328C6.27328 16.9328 5.18805 15.7287 5.14008 14.2645H1.44602C0.878204 14.2645 0.535156 13.9646 0.535156 13.5057C0.535156 12.7196 1.29273 12.0334 1.94821 11.3405C2.58493 10.6537 2.65047 9.25133 2.78321 8.0211C2.91055 5.34742 3.70016 3.52047 5.68625 2.87461C5.90289 1.82695 6.71032 1.05859 7.79579 1.05859C8.1409 1.05859 8.45723 1.13584 8.73509 1.27523ZM6.08032 14.2645C6.13743 15.373 6.83649 16.0759 7.79579 16.0759C8.75805 16.0759 9.45172 15.373 9.51422 14.2645H6.08032Z" fill="#303030"/>
<path id="Vector_2" d="M11.3169 6.18172C12.7257 6.18172 13.9019 5.01625 13.9019 3.60453C13.9019 2.185 12.7257 1.01953 11.3169 1.01953C9.89984 1.01953 8.73438 2.185 8.73438 3.60453C8.73438 5.01625 9.89984 6.18172 11.3169 6.18172Z" fill="#303030"/>
</g>
</svg>
