<svg width="20" height="15" viewBox="0 0 20 15" fill="none" xmlns="http://www.w3.org/2000/svg">
<g id="Group">
<path id="Vector" d="M6.41342 2.23144L6.78095 2.54489C7.11014 2.84145 7.36449 2.93121 7.84926 2.93121H11.9518C11.8227 3.17705 11.723 3.43965 11.6572 3.71508H7.65546C7.01524 3.71508 6.69849 3.60235 6.29967 3.25564L5.93411 2.93781C5.5907 2.63338 5.34663 2.53728 4.88243 2.53728H3.41713C2.75856 2.53728 2.41865 2.87478 2.41865 3.54846V5.31596H11.5914C11.6307 5.57409 11.6996 5.82248 11.7951 6.058H2.41865V11.2748C2.41865 12.0077 2.80319 12.3835 3.51863 12.3835H13.9673C14.6685 12.3835 15.0736 12.0077 15.0736 11.2792V8.54455C15.19 8.55714 15.3084 8.5626 15.4279 8.5626C15.5731 8.5626 15.7166 8.55434 15.8575 8.53663V11.3137C15.8575 12.5348 15.2245 13.1694 14.1118 13.1694H3.50397C2.26586 13.1694 1.63281 12.5451 1.63281 11.3137V3.49723C1.63281 2.33745 2.21292 1.76172 3.26669 1.76172H5.07184C5.7101 1.76172 5.99644 1.8622 6.41342 2.23144Z" fill="#303030"/>
<path id="Vector_2" d="M18.5848 4.66745C18.5848 6.39668 17.1432 7.82319 15.4291 7.82319C13.6975 7.82319 12.2734 6.40544 12.2734 4.66745C12.2734 2.94216 13.6975 1.51172 15.4291 1.51172C17.1583 1.51172 18.5848 2.93823 18.5848 4.66745ZM15.0847 3.01097V4.32944H13.7643C13.5649 4.32944 13.4263 4.46014 13.4263 4.66745C13.4263 4.87915 13.5649 5.00985 13.7643 5.00985H15.0847V6.33225C15.0847 6.53367 15.2174 6.67465 15.4291 6.67465C15.6364 6.67465 15.7671 6.53367 15.7671 6.33225V5.00985H17.0836C17.287 5.00985 17.428 4.87915 17.428 4.66745C17.428 4.46014 17.287 4.32944 17.0836 4.32944H15.7671V3.01097C15.7671 2.81153 15.6364 2.67296 15.4291 2.67296C15.2174 2.67296 15.0847 2.81153 15.0847 3.01097Z" fill="#303030"/>
</g>
</svg>
