<svg width="43" height="42" viewBox="0 0 43 42" fill="none" xmlns="http://www.w3.org/2000/svg">
<g id="Group">
<path id="Vector" d="M11.3217 41.9647C12.0668 41.9647 12.5976 41.5598 13.4803 40.7897L20.3396 34.7694H34.2168C39.5164 34.7694 42.5142 31.692 42.5142 26.478V10.7723C42.5142 5.5522 39.5164 2.47485 34.2168 2.47485H8.4127C3.10703 2.47485 0.115234 5.52056 0.115234 10.7723V26.478C0.115234 31.7237 3.10703 34.7694 8.4127 34.7694H9.66504V40.0352C9.66504 41.2061 10.2754 41.9647 11.3217 41.9647ZM11.9226 39.2321V33.4893C11.9226 32.6768 11.5972 32.3575 10.7847 32.3575H8.42481C4.57031 32.3575 2.5332 30.2125 2.5332 26.4463V10.7844C2.5332 7.01822 4.57031 4.89283 8.42481 4.89283H34.1986C38.0093 4.89283 40.0963 7.01822 40.0963 10.7844V26.4463C40.0963 30.2125 38.0093 32.3575 34.1986 32.3575H20.3375C19.4496 32.3575 18.9996 32.4895 18.3603 33.1301L11.9226 39.2321Z" fill="#303030"/>
</g>
</svg>
