<svg width="75" height="42" viewBox="0 0 75 42" fill="none" xmlns="http://www.w3.org/2000/svg">
<g id="Group">
<path id="Vector" d="M74.4477 35.7901C74.4477 37.8262 73.2648 38.8156 70.8871 38.8156H55.5859C56.0386 38.1716 56.2999 37.4142 56.3834 36.5789H71.1998C71.9127 36.5789 72.1854 36.3197 72.1854 35.6748C72.1854 30.4496 66.4885 25.7744 59.8172 25.7744C57.2073 25.7744 54.7456 26.49 52.7221 27.6808C52.2253 27.1186 51.6638 26.5814 51.0469 26.0759C53.4436 24.5034 56.4577 23.5317 59.8172 23.5317C68.2006 23.5317 74.4477 29.6024 74.4477 35.7901ZM66.9719 13.3006C66.9719 17.6858 63.8057 21.1719 59.8354 21.1719C55.8859 21.1719 52.6988 17.6992 52.6988 13.3276C52.6988 9.11407 55.9162 5.62598 59.8354 5.62598C63.7768 5.62598 66.9719 9.06758 66.9719 13.3006ZM54.9611 13.3276C54.9611 16.4549 57.1498 18.9096 59.8354 18.9096C62.5283 18.9096 64.723 16.4549 64.723 13.3006C64.723 10.2984 62.5324 7.88224 59.8354 7.88224C57.1606 7.88224 54.9611 10.3314 54.9611 13.3276Z" fill="#303030"/>
<path id="Vector_2" d="M23.5773 26.0776C22.9619 26.5823 22.4017 27.1185 21.9058 27.6796C19.8829 26.4895 17.4215 25.7744 14.8102 25.7744C8.13887 25.7744 2.442 30.4496 2.442 35.6748C2.442 36.3197 2.71466 36.5789 3.42754 36.5789H18.2439C18.3275 37.4142 18.5886 38.1716 19.0408 38.8156H3.72676C1.3625 38.8156 0.179688 37.8262 0.179688 35.7901C0.179688 29.6024 6.42676 23.5317 14.8102 23.5317C18.1655 23.5317 21.1795 24.5041 23.5773 26.0776ZM21.9844 13.3006C21.9844 17.6858 18.8047 21.1719 14.8418 21.1719C10.8789 21.1719 7.71133 17.6992 7.71133 13.3276C7.71133 9.11407 10.9152 5.62598 14.8418 5.62598C18.7893 5.62598 21.9844 9.06758 21.9844 13.3006ZM9.97364 13.3276C9.97364 16.4549 12.1488 18.9096 14.8418 18.9096C17.5348 18.9096 19.7356 16.4549 19.7356 13.3006C19.7356 10.2984 17.5449 7.88224 14.8418 7.88224C12.1596 7.88224 9.97364 10.3314 9.97364 13.3276Z" fill="#303030"/>
<path id="Vector_3" d="M37.3348 20.9114C41.8984 20.9114 45.5422 16.9236 45.5422 11.9329C45.5422 7.06011 41.8695 3.17065 37.3348 3.17065C32.8074 3.17065 29.1334 7.12007 29.1334 11.9599C29.1334 16.937 32.7771 20.9114 37.3348 20.9114ZM37.3348 18.6282C34.1562 18.6282 31.5453 15.7136 31.5453 11.9599C31.5453 8.33745 34.1461 5.45386 37.3348 5.45386C40.5174 5.45386 43.1242 8.29097 43.1242 11.9329C43.1242 15.6927 40.5267 18.6282 37.3348 18.6282ZM24.7045 38.8157H49.9078C52.782 38.8157 54.1434 37.9179 54.1434 35.9329C54.1434 30.84 47.733 23.5829 37.3092 23.5829C26.8928 23.5829 20.4824 30.84 20.4824 35.9329C20.4824 37.9179 21.8437 38.8157 24.7045 38.8157ZM24.0818 36.5325C23.1986 36.5325 22.9004 36.3111 22.9004 35.689C22.9004 31.9759 28.1338 25.8722 37.3092 25.8722C46.492 25.8722 51.7254 31.9759 51.7254 35.689C51.7254 36.3111 51.4137 36.5325 50.5305 36.5325H24.0818Z" fill="#303030"/>
</g>
</svg>
