<svg width="20" height="18" viewBox="0 0 20 18" fill="none" xmlns="http://www.w3.org/2000/svg">
<g id="Group">
<path id="Vector" d="M11.9075 9.64225C11.6911 9.79245 11.4926 9.96636 11.316 10.161C10.6199 9.80936 9.7559 9.58115 8.74455 9.58115C5.75817 9.58115 4.05928 11.5649 4.05928 12.7716C4.05928 12.9738 4.16059 13.0458 4.44763 13.0458H10.27C10.2805 13.3017 10.3207 13.55 10.3879 13.7878H4.64364C3.7139 13.7878 3.27344 13.496 3.27344 12.8509C3.27344 11.1957 5.3568 8.83712 8.74455 8.83712C9.98782 8.83712 11.0558 9.1556 11.9075 9.64225ZM11.4178 5.05087C11.4178 6.67282 10.2317 7.96889 8.75045 7.96889C7.26922 7.96889 6.08304 6.67721 6.08304 5.05963C6.08304 3.48668 7.28344 2.20312 8.75045 2.20312C10.2223 2.20312 11.4178 3.46719 11.4178 5.05087ZM6.86888 5.05963C6.86888 6.27958 7.71743 7.22686 8.75045 7.22686C9.78785 7.22686 10.632 6.27279 10.632 5.05087C10.632 3.86722 9.7848 2.94516 8.75045 2.94516C7.71654 2.94516 6.86888 3.88233 6.86888 5.05963Z" fill="#303030"/>
<path id="Vector_2" d="M17.3076 12.816C17.3076 14.5408 15.8659 15.9717 14.1518 15.9717C12.4202 15.9717 10.9961 14.5496 10.9961 12.816C10.9961 11.0843 12.4202 9.66016 14.1518 9.66016C15.881 9.66016 17.3076 11.0824 17.3076 12.816ZM13.8094 11.1551V12.4736H12.489C12.2895 12.4736 12.149 12.6043 12.149 12.816C12.149 13.0233 12.2895 13.154 12.489 13.154H13.8094V14.4788C13.8094 14.6758 13.9401 14.8168 14.1518 14.8168C14.3591 14.8168 14.4898 14.6758 14.4898 14.4788V13.154H15.8083C16.0097 13.154 16.1507 13.0233 16.1507 12.816C16.1507 12.6043 16.0097 12.4736 15.8083 12.4736H14.4898V11.1551C14.4898 10.96 14.3591 10.8171 14.1518 10.8171C13.9401 10.8171 13.8094 10.96 13.8094 11.1551Z" fill="#303030"/>
</g>
</svg>
