<svg width="44" height="40" viewBox="0 0 44 40" fill="none" xmlns="http://www.w3.org/2000/svg">
<g id="exclamationmark.arrow.circlepath 2" clip-path="url(#clip0_479_6004)">
<g id="Group">
<path id="Vector" d="M23.6664 39.1387C34.1797 39.1387 42.8149 30.5036 42.8149 19.9903C42.8149 9.47145 34.1797 0.841751 23.6664 0.841751C13.1477 0.841751 4.51794 9.46598 4.51794 19.9848H5.99614C5.99614 10.2317 13.9133 2.32542 23.6664 2.32542C33.4195 2.32542 41.3367 10.2371 41.3367 19.9903C41.3367 29.7434 33.4195 37.6573 23.6664 37.6465C17.2422 37.655 11.7126 34.1723 8.54148 29.07C8.28756 28.6911 7.86175 28.5778 7.49142 28.7848C7.14609 28.9919 7.02968 29.4474 7.30001 29.8427C10.8844 35.2872 16.7469 39.1387 23.6664 39.1387ZM1.62342 16.6426C0.835899 16.6426 0.568708 17.1917 1.06325 17.8918L5.17108 23.7653C5.57656 24.3544 6.13438 24.3489 6.54845 23.7653L10.6563 17.8864C11.1454 17.1918 10.8782 16.6426 10.082 16.6426H1.62342Z" fill="#FFD834"/>
<path id="Vector_2" d="M23.661 23.4637C24.1344 23.4637 24.4422 23.1192 24.4477 22.5535L24.6086 11.9317C24.6141 11.3715 24.2266 10.9809 23.6555 10.9809C23.0789 10.9809 22.7023 11.366 22.7078 11.9262L22.8687 22.5535C22.8742 23.1137 23.1766 23.4637 23.661 23.4637ZM23.661 29.1363C24.4563 29.1363 25.0954 28.4629 25.0954 27.7239C25.0954 26.9426 24.4618 26.3112 23.661 26.3112C22.8602 26.3112 22.2266 26.9481 22.2266 27.7239C22.2266 28.4715 22.8656 29.1363 23.661 29.1363Z" fill="#FFD834"/>
</g>
</g>
<defs>
<clipPath id="clip0_479_6004">
<rect width="42.3723" height="38.3165" fill="white" transform="translate(0.813477 0.841751)"/>
</clipPath>
</defs>
</svg>
