<svg width="40" height="40" viewBox="0 0 40 40" fill="none" xmlns="http://www.w3.org/2000/svg">
<g id="checkmark.circle 2" clip-path="url(#clip0_479_5871)">
<g id="Group">
<path id="Vector" d="M19.8077 39.1386C30.3405 39.1386 38.9702 30.5035 38.9702 19.9902C38.9702 9.47144 30.335 0.841736 19.8022 0.841736C9.28888 0.841736 0.65918 9.47144 0.65918 19.9902C0.65918 30.5035 9.29435 39.1386 19.8077 39.1386ZM19.8077 37.6464C10.0546 37.6464 2.15691 29.7433 2.15691 19.9902C2.15691 10.2371 10.0491 2.31994 19.8022 2.31994C29.5553 2.31994 37.4779 10.2371 37.4779 19.9902C37.4779 29.7433 29.5608 37.6464 19.8077 37.6464Z" fill="#00AF1E"/>
<path id="Vector_2" d="M17.7294 29.2675C18.0224 29.2675 18.2599 29.1238 18.4537 28.8698L28.6732 13.0129C28.7615 12.8472 28.8607 12.6425 28.8607 12.466C28.8607 12.0792 28.4872 11.7659 28.1169 11.7659C27.8817 11.7659 27.6466 11.9378 27.4583 12.1667L17.6935 27.4104L12.3131 21.1081C12.1115 20.8487 11.9068 20.7628 11.6412 20.7628C11.2654 20.7628 10.9248 21.0667 10.9248 21.4761C10.9248 21.6949 11.0162 21.8941 11.163 22.0824L16.9833 28.8698C17.2044 29.1488 17.4083 29.2675 17.7294 29.2675Z" fill="#00AF1E"/>
</g>
</g>
<defs>
<clipPath id="clip0_479_5871">
<rect width="38.6821" height="38.3165" fill="white" transform="translate(0.65918 0.841736)"/>
</clipPath>
</defs>
</svg>
