<svg width="10" height="12" viewBox="0 0 10 12" fill="none" xmlns="http://www.w3.org/2000/svg">
<g id="icon_&#233;&#148;&#129;" clip-path="url(#clip0_145_549)">
<g id="Group">
<path id="Vector" d="M1.98875 12H8.01126C8.98793 12 9.5 11.5093 9.5 10.5216V6.25405C9.5 5.27445 8.98793 4.78374 8.01126 4.78374H1.98875C1.01091 4.78374 0.5 5.27445 0.5 6.25405V10.5216C0.5 11.5093 1.01091 12 1.98875 12ZM2.1714 10.92C1.9041 10.92 1.75142 10.767 1.75142 10.4826V6.29513C1.75142 6.00966 1.9041 5.86384 2.1714 5.86384H7.82977C8.10233 5.86384 8.24743 6.00966 8.24743 6.29513V10.4826C8.24743 10.767 8.10233 10.92 7.82977 10.92H2.1714ZM1.67643 5.28999H2.88077V3.26271C2.88077 1.84784 3.84679 1.07901 4.99737 1.07901C6.14563 1.07901 7.12566 1.84784 7.12566 3.26271V5.28999H8.32472V3.36972C8.32472 1.1465 6.75417 0 4.99737 0C3.24583 0 1.67643 1.1465 1.67643 3.36972V5.28999Z" fill="#151515"/>
</g>
</g>
<defs>
<clipPath id="clip0_145_549">
<rect width="9" height="12" fill="white" transform="translate(0.5)"/>
</clipPath>
</defs>
</svg>
