<svg width="12" height="12" viewBox="0 0 12 12" fill="none" xmlns="http://www.w3.org/2000/svg">
<g id="icon_&#228;&#186;&#149;&#229;&#143;&#183;" clip-path="url(#clip0_145_466)">
<g id="Group">
<path id="Vector" d="M2.67371 11.4988C3.02468 11.4988 3.26563 11.3204 3.33836 10.9695L5.36033 1.24008C5.37404 1.19426 5.38671 1.10508 5.38671 1.02702C5.38671 0.704339 5.15041 0.511719 4.80675 0.511719C4.41663 0.511719 4.21854 0.714111 4.15058 1.05589L2.1286 10.776C2.11489 10.8413 2.10327 10.9259 2.10327 10.9891C2.10327 11.3118 2.33109 11.4988 2.67371 11.4988ZM6.45683 11.4988C6.81362 11.4988 7.04981 11.3204 7.12359 10.9695L9.14928 1.24008C9.15718 1.19426 9.16984 1.10508 9.16984 1.02702C9.16984 0.704339 8.93353 0.511719 8.59569 0.511719C8.19975 0.511719 8.00852 0.716133 7.93952 1.05589L5.91278 10.776C5.90011 10.8413 5.89222 10.9259 5.89222 10.9891C5.89222 11.3118 6.11899 11.4988 6.45683 11.4988ZM1.81712 4.536H10.2916C10.6979 4.536 10.9656 4.26891 10.9656 3.89288C10.9656 3.59019 10.7516 3.36174 10.4181 3.36174H1.94468C1.54212 3.36174 1.26957 3.63601 1.26957 4.01665C1.26957 4.32394 1.48938 4.536 1.81712 4.536ZM1.04755 8.40045H9.51885C9.92246 8.40045 10.194 8.13842 10.194 7.76239C10.194 7.45971 9.9752 7.22923 9.64746 7.22923H1.17406C0.766745 7.22923 0.5 7.50249 0.5 7.88313C0.5 8.19144 0.712954 8.40045 1.04755 8.40045Z" fill="#151515"/>
</g>
</g>
<defs>
<clipPath id="clip0_145_466">
<rect width="11" height="11" fill="white" transform="translate(0.5 0.5)"/>
</clipPath>
</defs>
</svg>
