<svg width="26" height="20" viewBox="0 0 26 20" fill="none" xmlns="http://www.w3.org/2000/svg">
<g id="Group">
<path id="Vector" d="M3.22897 9.99609C3.22897 14.3477 6.83837 17.9648 11.1978 17.9648C12.3013 17.9648 13.3576 17.7322 14.3187 17.3122C13.5729 16.4342 13.1197 15.3036 13.1197 14.082C13.1197 13.6707 13.17 13.2703 13.2702 12.8887C12.6465 12.7389 11.9498 12.6523 11.1978 12.6523C8.84587 12.6523 7.03767 13.4941 6.24947 14.4292C5.19337 13.261 4.55717 11.7077 4.55717 9.99609C4.55717 6.30859 7.51807 3.35546 11.2056 3.35546C14.5754 3.35546 17.3189 5.82168 17.759 9.06341C17.8902 9.04837 18.0239 9.04296 18.1587 9.04296C18.4862 9.04296 18.8069 9.07501 19.1172 9.13835C18.6835 5.17288 15.2679 2.02734 11.2056 2.02734C6.84617 2.02734 3.22897 5.63671 3.22897 9.99609ZM8.51807 8.3789C8.51807 10.0586 9.68997 11.3398 11.1978 11.3242C12.6978 11.3086 13.8696 10.0586 13.8775 8.3789C13.8853 6.80078 12.6978 5.49609 11.1978 5.49609C9.69777 5.49609 8.51807 6.80078 8.51807 8.3789Z" fill="#A4A4A4"/>
<path id="Vector_2" d="M18.1602 18.0508C16.0117 18.0508 14.1914 16.2539 14.1914 14.082C14.1914 11.9023 15.9805 10.1133 18.1602 10.1133C20.332 10.1133 22.1289 11.9101 22.1289 14.082C22.1289 16.2695 20.332 18.0508 18.1602 18.0508Z" fill="#A4A4A4"/>
</g>
</svg>
