<svg width="24" height="18" viewBox="0 0 24 18" fill="none" xmlns="http://www.w3.org/2000/svg">
<g id="Group">
<path id="Vector" d="M10.1967 10.8677C9.87381 11.1326 9.58625 11.4179 9.33863 11.7173C8.60755 11.338 7.74803 11.1132 6.84375 11.1132C4.28906 11.1132 2.07812 12.9179 2.07812 14.8554C2.07812 15.0117 2.15625 15.0742 2.3125 15.0742H7.96499C7.97671 15.5074 8.08931 15.9007 8.31328 16.2304H2.50781C1.44531 16.2304 0.914062 15.8008 0.914062 14.9258C0.914062 12.332 3.57031 9.95703 6.84375 9.95703C8.08984 9.95703 9.24466 10.2996 10.1967 10.8677ZM9.78125 5.84765C9.78125 7.62109 8.46093 9.06641 6.85156 9.06641C5.24219 9.06641 3.92187 7.62891 3.92187 5.86328C3.92187 4.13672 5.24219 2.71484 6.85156 2.71484C8.47656 2.71484 9.78125 4.11328 9.78125 5.84765ZM5.08593 5.86328C5.08593 6.98828 5.89843 7.90234 6.85156 7.90234C7.8125 7.90234 8.625 6.98828 8.625 5.84765C8.625 4.74609 7.83593 3.87891 6.85156 3.87891C5.89062 3.87891 5.08593 4.76172 5.08593 5.86328Z" fill="#A4A4A4"/>
<path id="Vector_2" d="M15.8516 8.99609C17.7109 8.99609 19.2266 7.34765 19.2266 5.33203C19.2266 3.33203 17.7187 1.76172 15.8516 1.76172C14 1.76172 12.4766 3.36328 12.4766 5.34765C12.4766 7.35547 14 8.99609 15.8516 8.99609ZM15.8516 7.81641C14.7109 7.81641 13.7344 6.73047 13.7344 5.34765C13.7344 3.98828 14.6953 2.94141 15.8516 2.94141C17.0156 2.94141 17.9687 3.96484 17.9687 5.33203C17.9687 6.71484 17.0078 7.81641 15.8516 7.81641ZM10.9453 16.2304H20.7578C22.0547 16.2304 22.6719 15.8398 22.6719 14.9804C22.6719 12.9336 20.0859 9.97265 15.8516 9.97265C11.6094 9.97265 9.02344 12.9336 9.02344 14.9804C9.02344 15.8398 9.64063 16.2304 10.9453 16.2304ZM10.5703 15.0508C10.3672 15.0508 10.2812 14.9961 10.2812 14.832C10.2812 13.5429 12.2656 11.1523 15.8516 11.1523C19.4297 11.1523 21.414 13.5429 21.414 14.832C21.414 14.9961 21.3359 15.0508 21.1328 15.0508H10.5703Z" fill="#A4A4A4"/>
</g>
</svg>
