<svg width="20" height="16" viewBox="0 0 20 16" fill="none" xmlns="http://www.w3.org/2000/svg">
<g id="Group 1">
<path id="Vector" d="M0.816465 7.94683C0.816465 12.1793 4.31169 15.6799 8.55198 15.6799C9.68301 15.6799 10.7618 15.4299 11.7319 14.9765C11.0389 14.1538 10.6184 13.0967 10.6184 11.953C10.6184 11.5619 10.6668 11.1813 10.7631 10.819C10.1063 10.6361 9.36175 10.5277 8.55198 10.5277C6.12459 10.5277 4.28643 11.4981 3.57195 12.4773C2.47838 11.2876 1.81651 9.69726 1.81651 7.94683C1.81651 4.21673 4.8272 1.21139 8.5573 1.21139C12.044 1.21139 14.886 3.83726 15.2407 7.22688C15.2764 7.22172 15.3132 7.22128 15.3502 7.22128C15.6585 7.22128 15.9604 7.25154 16.2524 7.31122C15.9295 3.36428 12.5757 0.213745 8.5573 0.213745C4.31704 0.213745 0.816465 3.70899 0.816465 7.94683ZM5.92405 6.30299C5.92405 7.95354 7.06864 9.21565 8.55198 9.20739C10.0324 9.19675 11.177 7.95354 11.1823 6.30299C11.19 4.75506 10.0228 3.46266 8.55198 3.46266C7.08358 3.46266 5.92405 4.75506 5.92405 6.30299Z" fill="#303030"/>
<path id="Vector_2" d="M15.3504 15.7861C13.2683 15.7861 11.5172 14.0534 11.5172 11.953C11.5172 9.84724 13.2446 8.11981 15.3504 8.11981C17.4485 8.11981 19.1836 9.85494 19.1836 11.953C19.1836 14.0641 17.4485 15.7861 15.3504 15.7861Z" fill="#303030"/>
</g>
</svg>
